<svg xmlns="http://www.w3.org/2000/svg" viewBox="0 0 400 438" role="img" aria-label="Схема амортизатора"><title>Схема амортизатора</title><defs>
<pattern id="mRub" width="7" height="7" patternUnits="userSpaceOnUse">
  <path d="M0 7 L7 0 M-1 1 L1 -1 M6 8 L8 6" stroke="#C9D3DA" stroke-width="1"/>
  <path d="M0 0 L7 7 M-1 6 L1 8 M6 -1 L8 1" stroke="#C9D3DA" stroke-width="1"/>
</pattern>
<pattern id="mCer" width="8" height="8" patternUnits="userSpaceOnUse">
  <circle cx="2" cy="2" r="1.2" fill="#C9D3DA"/><circle cx="6" cy="6" r="1.2" fill="#C9D3DA"/>
</pattern>
<pattern id="mFric" width="6" height="6" patternUnits="userSpaceOnUse">
  <circle cx="1.5" cy="1.5" r="0.9" fill="#0E7C7B" opacity="0.55"/>
  <circle cx="4.5" cy="4.5" r="0.9" fill="#0E7C7B" opacity="0.55"/>
  <circle cx="4.5" cy="1.5" r="0.6" fill="#0E7C7B" opacity="0.35"/>
</pattern>
<pattern id="mMet" width="6" height="6" patternUnits="userSpaceOnUse" patternTransform="rotate(45)">
  <path d="M0 0 V6" stroke="#C9D3DA" stroke-width="1"/>
</pattern>
</defs><rect width="400" height="438" rx="16" fill="#F5F7F9"/><g id="hl"></g><g transform="translate(36,46) scale(0.82)"><g fill="none" stroke-linecap="round" stroke-linejoin="round">
<circle cx="166.0" cy="30.0" r="17.0" stroke="#5C6B78" stroke-width="3.4" fill="#EAEFF3"/>
<circle cx="166.0" cy="30.0" r="9.0" stroke="none" stroke-width="0" fill="url(#mRub)"/><circle cx="166.0" cy="30.0" r="9.0" stroke="#C9D3DA" stroke-width="1.1" fill="none"/>
<circle cx="166.0" cy="30.0" r="4.0" stroke="#5C6B78" stroke-width="1.6" fill="#EAEFF3"/>
<rect x="161.0" y="46.0" width="10.0" height="54.0" rx="3" stroke="none" stroke-width="0" fill="#EAEFF3"/><rect x="162.4" y="46.0" width="2.2" height="54.0" fill="#FFFFFF" opacity="0.65"/><path d="M 169.4 46.0 L 169.4 100.0" stroke="#C9D3DA" stroke-width="1.1"/><rect x="161.0" y="46.0" width="10.0" height="54.0" rx="3" stroke="#5C6B78" stroke-width="2.3" fill="none"/>
<path d="M 150.0 50.0 Q 144.0 54.8 150.0 59.6" stroke="#C9D3DA" stroke-width="1.1" fill="none"/><path d="M 150.0 59.6 Q 144.0 64.4 150.0 69.2" stroke="#C9D3DA" stroke-width="1.1" fill="none"/><path d="M 150.0 69.2 Q 144.0 74.0 150.0 78.8" stroke="#C9D3DA" stroke-width="1.1" fill="none"/><path d="M 150.0 78.8 Q 144.0 83.6 150.0 88.4" stroke="#C9D3DA" stroke-width="1.1" fill="none"/><path d="M 150.0 88.4 Q 144.0 93.2 150.0 98.0" stroke="#C9D3DA" stroke-width="1.1" fill="none"/>
<path d="M 182.0 50.0 Q 188.0 54.8 182.0 59.6" stroke="#C9D3DA" stroke-width="1.1" fill="none"/><path d="M 182.0 59.6 Q 188.0 64.4 182.0 69.2" stroke="#C9D3DA" stroke-width="1.1" fill="none"/><path d="M 182.0 69.2 Q 188.0 74.0 182.0 78.8" stroke="#C9D3DA" stroke-width="1.1" fill="none"/><path d="M 182.0 78.8 Q 188.0 83.6 182.0 88.4" stroke="#C9D3DA" stroke-width="1.1" fill="none"/><path d="M 182.0 88.4 Q 188.0 93.2 182.0 98.0" stroke="#C9D3DA" stroke-width="1.1" fill="none"/>
<rect x="130.0" y="98.0" width="72.0" height="108.0" rx="12" stroke="#0E7C7B" stroke-width="3.4" fill="#E3EFEF"/>
<path d="M 130.0 120.0 L 202.0 120.0" stroke="#0E7C7B" stroke-width="2.3"/>
<rect x="144.0" y="108.0" width="44.0" height="14.0" rx="3" stroke="#5C6B78" stroke-width="2.3" fill="#EAEFF3"/>
<path d="M 152.0 108.0 L 152.0 122.0" stroke="#C9D3DA" stroke-width="1.1"/><path d="M 180.0 108.0 L 180.0 122.0" stroke="#C9D3DA" stroke-width="1.1"/>
<path d="M 138.0 138.0 L 194.0 138.0" stroke="#C9D3DA" stroke-width="1.1"/><path d="M 138.0 156.0 L 194.0 156.0" stroke="#C9D3DA" stroke-width="1.1"/><path d="M 138.0 174.0 L 194.0 174.0" stroke="#C9D3DA" stroke-width="1.1"/>
<rect x="146.0" y="186.0" width="40.0" height="12.0" rx="3" stroke="#5C6B78" stroke-width="2.3" fill="#EAEFF3"/>
<path d="M 154.0 186.0 L 154.0 198.0" stroke="#C9D3DA" stroke-width="1.1"/><path d="M 178.0 186.0 L 178.0 198.0" stroke="#C9D3DA" stroke-width="1.1"/>
<circle cx="166.0" cy="220.0" r="16.0" stroke="#5C6B78" stroke-width="3.4" fill="#EAEFF3"/>
<circle cx="166.0" cy="220.0" r="8.0" stroke="none" stroke-width="0" fill="url(#mRub)"/><circle cx="166.0" cy="220.0" r="8.0" stroke="#C9D3DA" stroke-width="1.1" fill="none"/>
<circle cx="166.0" cy="220.0" r="4.0" stroke="#5C6B78" stroke-width="1.6" fill="#EAEFF3"/>
<path d="M 228.0 74.0 L 228.0 34.0" stroke="#C9D3DA" stroke-width="1.6"/><path d="M 231.5 41.2 L 228.0 34.0 L 224.5 41.2" stroke="#C9D3DA" stroke-width="1.6" fill="none"/><path d="M 228.0 176.0 L 228.0 214.0" stroke="#C9D3DA" stroke-width="1.6"/><path d="M 224.5 206.8 L 228.0 214.0 L 231.5 206.8" stroke="#C9D3DA" stroke-width="1.6" fill="none"/>
<path d="M 300 118 A 10 10 0 0 1 300 138" stroke="#0E7C7B" stroke-width="3" opacity="0.75"/><path d="M 300 107 A 21 21 0 0 1 300 149" stroke="#0E7C7B" stroke-width="3" opacity="0.55"/></g></g><g fill="none" stroke-linecap="round" stroke-linejoin="round"><path d="M 165.2 20.0 L 172.1 20.0 L 172.1 70.6" stroke="#F5F7F9" stroke-width="4.5" fill="none"/><path d="M 165.2 20.0 L 172.1 20.0 L 172.1 70.6" stroke="#C9D3DA" stroke-width="1.4" fill="none"/><circle cx="172.1" cy="70.6" r="2.5" fill="#0E7C7B"/><circle cx="165.2" cy="20.0" r="9.5" fill="#0E7C7B"/><text x="165.2" y="23.8" font-family="Manrope, Inter, system-ui, -apple-system, Segoe UI, sans-serif" font-size="11" font-weight="700" fill="#FFFFFF" text-anchor="middle">1</text><path d="M 139.2 20.0 L 185.2 20.0 L 185.2 106.7" stroke="#F5F7F9" stroke-width="4.5" fill="none"/><path d="M 139.2 20.0 L 185.2 20.0 L 185.2 106.7" stroke="#C9D3DA" stroke-width="1.4" fill="none"/><circle cx="185.2" cy="106.7" r="2.5" fill="#0E7C7B"/><circle cx="139.2" cy="20.0" r="9.5" fill="#0E7C7B"/><text x="139.2" y="23.8" font-family="Manrope, Inter, system-ui, -apple-system, Segoe UI, sans-serif" font-size="11" font-weight="700" fill="#FFFFFF" text-anchor="middle">2</text><path d="M 14.0 117.0 L 14.0 140.3 L 172.1 140.3" stroke="#F5F7F9" stroke-width="4.5" fill="none"/><path d="M 14.0 117.0 L 14.0 140.3 L 172.1 140.3" stroke="#C9D3DA" stroke-width="1.4" fill="none"/><circle cx="172.1" cy="140.3" r="2.5" fill="#0E7C7B"/><circle cx="14.0" cy="117.0" r="9.5" fill="#0E7C7B"/><text x="14.0" y="120.8" font-family="Manrope, Inter, system-ui, -apple-system, Segoe UI, sans-serif" font-size="11" font-weight="700" fill="#FFFFFF" text-anchor="middle">3</text><path d="M 97.7 264.8 L 172.1 264.8 L 172.1 177.2" stroke="#F5F7F9" stroke-width="4.5" fill="none"/><path d="M 97.7 264.8 L 172.1 264.8 L 172.1 177.2" stroke="#C9D3DA" stroke-width="1.4" fill="none"/><circle cx="172.1" cy="177.2" r="2.5" fill="#0E7C7B"/><circle cx="97.7" cy="264.8" r="9.5" fill="#0E7C7B"/><text x="97.7" y="268.6" font-family="Manrope, Inter, system-ui, -apple-system, Segoe UI, sans-serif" font-size="11" font-weight="700" fill="#FFFFFF" text-anchor="middle">4</text><path d="M 159.1 264.8 L 172.1 264.8 L 172.1 226.4" stroke="#F5F7F9" stroke-width="4.5" fill="none"/><path d="M 159.1 264.8 L 172.1 264.8 L 172.1 226.4" stroke="#C9D3DA" stroke-width="1.4" fill="none"/><circle cx="172.1" cy="226.4" r="2.5" fill="#0E7C7B"/><circle cx="159.1" cy="264.8" r="9.5" fill="#0E7C7B"/><text x="159.1" y="268.6" font-family="Manrope, Inter, system-ui, -apple-system, Segoe UI, sans-serif" font-size="11" font-weight="700" fill="#FFFFFF" text-anchor="middle">5</text></g><path d="M 16 308 L 384 308" stroke="#C9D3DA" stroke-width="1.4" fill="none"/><g><circle cx="24" cy="316" r="8.5" fill="#F5F7F9" stroke="#0E7C7B" stroke-width="1.6"/><text x="24.0" y="319.5" font-family="Manrope, Inter, system-ui, -apple-system, Segoe UI, sans-serif" font-size="10" font-weight="700" fill="#0E7C7B" text-anchor="middle">1</text><text x="38.0" y="320.0" font-family="Manrope, Inter, system-ui, -apple-system, Segoe UI, sans-serif" font-size="11" font-weight="500" fill="#2B3A44" text-anchor="start">верхняя опора</text><circle cx="24" cy="337" r="8.5" fill="#F5F7F9" stroke="#0E7C7B" stroke-width="1.6"/><text x="24.0" y="340.5" font-family="Manrope, Inter, system-ui, -apple-system, Segoe UI, sans-serif" font-size="10" font-weight="700" fill="#0E7C7B" text-anchor="middle">2</text><text x="38.0" y="341.0" font-family="Manrope, Inter, system-ui, -apple-system, Segoe UI, sans-serif" font-size="11" font-weight="500" fill="#2B3A44" text-anchor="start">пыльник штока</text><circle cx="24" cy="358" r="8.5" fill="#F5F7F9" stroke="#0E7C7B" stroke-width="1.6"/><text x="24.0" y="361.5" font-family="Manrope, Inter, system-ui, -apple-system, Segoe UI, sans-serif" font-size="10" font-weight="700" fill="#0E7C7B" text-anchor="middle">3</text><text x="38.0" y="362.0" font-family="Manrope, Inter, system-ui, -apple-system, Segoe UI, sans-serif" font-size="11" font-weight="500" fill="#2B3A44" text-anchor="start">поршень с клапанами</text><circle cx="214" cy="316" r="8.5" fill="#F5F7F9" stroke="#0E7C7B" stroke-width="1.6"/><text x="214.0" y="319.5" font-family="Manrope, Inter, system-ui, -apple-system, Segoe UI, sans-serif" font-size="10" font-weight="700" fill="#0E7C7B" text-anchor="middle">4</text><text x="228.0" y="320.0" font-family="Manrope, Inter, system-ui, -apple-system, Segoe UI, sans-serif" font-size="11" font-weight="500" fill="#2B3A44" text-anchor="start">корпус с маслом</text><circle cx="214" cy="337" r="8.5" fill="#F5F7F9" stroke="#0E7C7B" stroke-width="1.6"/><text x="214.0" y="340.5" font-family="Manrope, Inter, system-ui, -apple-system, Segoe UI, sans-serif" font-size="10" font-weight="700" fill="#0E7C7B" text-anchor="middle">5</text><text x="228.0" y="341.0" font-family="Manrope, Inter, system-ui, -apple-system, Segoe UI, sans-serif" font-size="11" font-weight="500" fill="#2B3A44" text-anchor="start">нижняя проушина</text></g><text x="16.0" y="426.0" font-family="Manrope, Inter, system-ui, -apple-system, Segoe UI, sans-serif" font-size="12" font-weight="700" fill="#2B3A44" text-anchor="start">Схема амортизатора</text></svg>