<svg xmlns="http://www.w3.org/2000/svg" viewBox="0 0 400 438" role="img" aria-label="Схема катализатора"><title>Схема катализатора</title><rect width="400" height="438" rx="16" fill="#F5F7F9"/><g id="hl"></g><g transform="translate(36,46) scale(0.82)"><g fill="none" stroke-linecap="round" stroke-linejoin="round">
<path d="M 30.0 108.0 L 78.0 108.0 L 122.0 90.0 L 274.0 90.0 L 318.0 108.0 L 366.0 108.0" stroke="#5C6B78" stroke-width="3.4" fill="none"/>
<path d="M 30.0 132.0 L 78.0 132.0 L 122.0 150.0 L 274.0 150.0 L 318.0 132.0 L 366.0 132.0" stroke="#5C6B78" stroke-width="3.4" fill="none"/>
<path d="M 122.0 90.0 L 122.0 150.0" stroke="#5C6B78" stroke-width="2.3"/>
<path d="M 274.0 90.0 L 274.0 150.0" stroke="#5C6B78" stroke-width="2.3"/>
<path d="M 126.0 92.0 L 126.0 148.0" stroke="#0E7C7B" stroke-width="1.3"/><path d="M 139.0 92.0 L 139.0 148.0" stroke="#0E7C7B" stroke-width="1.3"/><path d="M 152.0 92.0 L 152.0 148.0" stroke="#0E7C7B" stroke-width="1.3"/><path d="M 165.0 92.0 L 165.0 148.0" stroke="#0E7C7B" stroke-width="1.3"/><path d="M 178.0 92.0 L 178.0 148.0" stroke="#0E7C7B" stroke-width="1.3"/><path d="M 191.0 92.0 L 191.0 148.0" stroke="#0E7C7B" stroke-width="1.3"/><path d="M 204.0 92.0 L 204.0 148.0" stroke="#0E7C7B" stroke-width="1.3"/><path d="M 217.0 92.0 L 217.0 148.0" stroke="#0E7C7B" stroke-width="1.3"/><path d="M 230.0 92.0 L 230.0 148.0" stroke="#0E7C7B" stroke-width="1.3"/><path d="M 243.0 92.0 L 243.0 148.0" stroke="#0E7C7B" stroke-width="1.3"/><path d="M 256.0 92.0 L 256.0 148.0" stroke="#0E7C7B" stroke-width="1.3"/><path d="M 269.0 92.0 L 269.0 148.0" stroke="#0E7C7B" stroke-width="1.3"/><path d="M 122.0 100.0 L 274.0 100.0" stroke="#0E7C7B" stroke-width="1.3"/><path d="M 122.0 112.0 L 274.0 112.0" stroke="#0E7C7B" stroke-width="1.3"/><path d="M 122.0 124.0 L 274.0 124.0" stroke="#0E7C7B" stroke-width="1.3"/><path d="M 122.0 136.0 L 274.0 136.0" stroke="#0E7C7B" stroke-width="1.3"/>
<rect x="88.0" y="84.0" width="14.0" height="24.0" rx="3" stroke="#5C6B78" stroke-width="1.6" fill="#EAEFF3"/><path d="M 95.0 84.0 L 95.0 62.0" stroke="#5C6B78" stroke-width="2.3"/>
<rect x="298.0" y="84.0" width="14.0" height="24.0" rx="3" stroke="#5C6B78" stroke-width="1.6" fill="#EAEFF3"/><path d="M 305.0 84.0 L 305.0 62.0" stroke="#5C6B78" stroke-width="2.3"/>
<path d="M 360 165 A 11 11 0 0 1 360 187" stroke="#0E7C7B" stroke-width="2.3" opacity="0.75"/><path d="M 360 153 A 23 23 0 0 1 360 199" stroke="#0E7C7B" stroke-width="2.3" opacity="0.55"/></g></g><g fill="none" stroke-linecap="round" stroke-linejoin="round"><path d="M 113.9 103.4 L 14.0 55.8" stroke="#F5F7F9" stroke-width="4.5" fill="none"/><path d="M 113.9 103.4 L 14.0 55.8" stroke="#C9D3DA" stroke-width="1.4" fill="none"/><circle cx="113.9" cy="103.4" r="2.5" fill="#0E7C7B"/><circle cx="14.0" cy="55.8" r="9.5" fill="#0E7C7B"/><text x="14.0" y="59.6" font-family="Manrope, Inter, system-ui, -apple-system, Segoe UI, sans-serif" font-size="11" font-weight="700" fill="#FFFFFF" text-anchor="middle">1</text><path d="M 198.4 123.9 L 190.0 20.0" stroke="#F5F7F9" stroke-width="4.5" fill="none"/><path d="M 198.4 123.9 L 190.0 20.0" stroke="#C9D3DA" stroke-width="1.4" fill="none"/><circle cx="198.4" cy="123.9" r="2.5" fill="#0E7C7B"/><circle cx="190.0" cy="20.0" r="9.5" fill="#0E7C7B"/><text x="190.0" y="23.8" font-family="Manrope, Inter, system-ui, -apple-system, Segoe UI, sans-serif" font-size="11" font-weight="700" fill="#FFFFFF" text-anchor="middle">2</text><path d="M 80.3 144.4 L 14.0 131.4" stroke="#F5F7F9" stroke-width="4.5" fill="none"/><path d="M 80.3 144.4 L 14.0 131.4" stroke="#C9D3DA" stroke-width="1.4" fill="none"/><circle cx="80.3" cy="144.4" r="2.5" fill="#0E7C7B"/><circle cx="14.0" cy="131.4" r="9.5" fill="#0E7C7B"/><text x="14.0" y="135.2" font-family="Manrope, Inter, system-ui, -apple-system, Segoe UI, sans-serif" font-size="11" font-weight="700" fill="#FFFFFF" text-anchor="middle">3</text><path d="M 198.4 144.4 L 14.0 157.4" stroke="#F5F7F9" stroke-width="4.5" fill="none"/><path d="M 198.4 144.4 L 14.0 157.4" stroke="#C9D3DA" stroke-width="1.4" fill="none"/><circle cx="198.4" cy="144.4" r="2.5" fill="#0E7C7B"/><circle cx="14.0" cy="157.4" r="9.5" fill="#0E7C7B"/><text x="14.0" y="161.2" font-family="Manrope, Inter, system-ui, -apple-system, Segoe UI, sans-serif" font-size="11" font-weight="700" fill="#FFFFFF" text-anchor="middle">4</text></g><path d="M 16 308 L 384 308" stroke="#C9D3DA" stroke-width="1.4" fill="none"/><g><circle cx="24" cy="316" r="8.5" fill="#F5F7F9" stroke="#0E7C7B" stroke-width="1.6"/><text x="24.0" y="319.5" font-family="Manrope, Inter, system-ui, -apple-system, Segoe UI, sans-serif" font-size="10" font-weight="700" fill="#0E7C7B" text-anchor="middle">1</text><text x="38.0" y="320.0" font-family="Manrope, Inter, system-ui, -apple-system, Segoe UI, sans-serif" font-size="11" font-weight="500" fill="#2B3A44" text-anchor="start">подвес</text><circle cx="24" cy="337" r="8.5" fill="#F5F7F9" stroke="#0E7C7B" stroke-width="1.6"/><text x="24.0" y="340.5" font-family="Manrope, Inter, system-ui, -apple-system, Segoe UI, sans-serif" font-size="10" font-weight="700" fill="#0E7C7B" text-anchor="middle">2</text><text x="38.0" y="341.0" font-family="Manrope, Inter, system-ui, -apple-system, Segoe UI, sans-serif" font-size="11" font-weight="500" fill="#2B3A44" text-anchor="start">корпус катализатора</text><circle cx="214" cy="316" r="8.5" fill="#F5F7F9" stroke="#0E7C7B" stroke-width="1.6"/><text x="214.0" y="319.5" font-family="Manrope, Inter, system-ui, -apple-system, Segoe UI, sans-serif" font-size="10" font-weight="700" fill="#0E7C7B" text-anchor="middle">3</text><text x="228.0" y="320.0" font-family="Manrope, Inter, system-ui, -apple-system, Segoe UI, sans-serif" font-size="11" font-weight="500" fill="#2B3A44" text-anchor="start">приёмная труба</text><circle cx="214" cy="337" r="8.5" fill="#F5F7F9" stroke="#0E7C7B" stroke-width="1.6"/><text x="214.0" y="340.5" font-family="Manrope, Inter, system-ui, -apple-system, Segoe UI, sans-serif" font-size="10" font-weight="700" fill="#0E7C7B" text-anchor="middle">4</text><text x="228.0" y="341.0" font-family="Manrope, Inter, system-ui, -apple-system, Segoe UI, sans-serif" font-size="11" font-weight="500" fill="#2B3A44" text-anchor="start">керамические соты</text></g><text x="16.0" y="426.0" font-family="Manrope, Inter, system-ui, -apple-system, Segoe UI, sans-serif" font-size="12" font-weight="700" fill="#2B3A44" text-anchor="start">Схема катализатора</text></svg>