<svg xmlns="http://www.w3.org/2000/svg" viewBox="0 0 400 336" role="img" aria-label="Схема сцепления"><title>Схема сцепления</title><rect width="400" height="336" rx="16" fill="#F5F7F9"/><g transform="translate(10,6) scale(0.95)"><g fill="none" stroke-linecap="round" stroke-linejoin="round">
<rect x="40.0" y="34.0" width="28.0" height="172.0" rx="5" stroke="#5C6B78" stroke-width="3.5" fill="#EAEFF3"/>
<path d="M 42.0 36.0 L 42.0 36.0" stroke="#C9D3DA" stroke-width="2"/><path d="M 55.0 36.0 L 42.0 49.0" stroke="#C9D3DA" stroke-width="2"/><path d="M 66.0 38.0 L 42.0 62.0" stroke="#C9D3DA" stroke-width="2"/><path d="M 66.0 51.0 L 42.0 75.0" stroke="#C9D3DA" stroke-width="2"/><path d="M 66.0 64.0 L 42.0 88.0" stroke="#C9D3DA" stroke-width="2"/><path d="M 66.0 77.0 L 42.0 101.0" stroke="#C9D3DA" stroke-width="2"/><path d="M 66.0 90.0 L 42.0 114.0" stroke="#C9D3DA" stroke-width="2"/><path d="M 66.0 103.0 L 42.0 127.0" stroke="#C9D3DA" stroke-width="2"/><path d="M 66.0 116.0 L 42.0 140.0" stroke="#C9D3DA" stroke-width="2"/><path d="M 66.0 129.0 L 42.0 153.0" stroke="#C9D3DA" stroke-width="2"/><path d="M 66.0 142.0 L 42.0 166.0" stroke="#C9D3DA" stroke-width="2"/><path d="M 66.0 155.0 L 42.0 179.0" stroke="#C9D3DA" stroke-width="2"/><path d="M 66.0 168.0 L 42.0 192.0" stroke="#C9D3DA" stroke-width="2"/><path d="M 66.0 181.0 L 43.0 204.0" stroke="#C9D3DA" stroke-width="2"/>
<rect x="80.0" y="50.0" width="24.0" height="140.0" rx="4" stroke="#0E7C7B" stroke-width="3.5" fill="#E3EFEF"/>
<path d="M 80.0 58.0 L 104.0 58.0" stroke="#0E7C7B" stroke-width="2.2"/><path d="M 80.0 73.0 L 104.0 73.0" stroke="#0E7C7B" stroke-width="2.2"/><path d="M 80.0 88.0 L 104.0 88.0" stroke="#0E7C7B" stroke-width="2.2"/>
<path d="M 80.0 152.0 L 104.0 152.0" stroke="#0E7C7B" stroke-width="2.2"/><path d="M 80.0 167.0 L 104.0 167.0" stroke="#0E7C7B" stroke-width="2.2"/><path d="M 80.0 182.0 L 104.0 182.0" stroke="#0E7C7B" stroke-width="2.2"/>
<rect x="82.0" y="104.0" width="20.0" height="16.0" rx="3" stroke="#0E7C7B" stroke-width="2.2" fill="#E3EFEF"/><path d="M 87.0 106.0 L 87.0 118.0" stroke="#0E7C7B" stroke-width="1.9800000000000002"/><path d="M 92.0 106.0 L 92.0 118.0" stroke="#0E7C7B" stroke-width="1.9800000000000002"/><path d="M 97.0 106.0 L 97.0 118.0" stroke="#0E7C7B" stroke-width="1.9800000000000002"/><rect x="82.0" y="126.0" width="20.0" height="16.0" rx="3" stroke="#0E7C7B" stroke-width="2.2" fill="#E3EFEF"/><path d="M 87.0 128.0 L 87.0 140.0" stroke="#0E7C7B" stroke-width="1.9800000000000002"/><path d="M 92.0 128.0 L 92.0 140.0" stroke="#0E7C7B" stroke-width="1.9800000000000002"/><path d="M 97.0 128.0 L 97.0 140.0" stroke="#0E7C7B" stroke-width="1.9800000000000002"/>
<rect x="116.0" y="38.0" width="30.0" height="164.0" rx="5" stroke="#5C6B78" stroke-width="3.5" fill="#EAEFF3"/>
<path d="M 118.0 40.0 L 118.0 40.0" stroke="#C9D3DA" stroke-width="2"/><path d="M 131.0 40.0 L 118.0 53.0" stroke="#C9D3DA" stroke-width="2"/><path d="M 144.0 40.0 L 118.0 66.0" stroke="#C9D3DA" stroke-width="2"/><path d="M 144.0 53.0 L 118.0 79.0" stroke="#C9D3DA" stroke-width="2"/><path d="M 144.0 66.0 L 118.0 92.0" stroke="#C9D3DA" stroke-width="2"/><path d="M 144.0 79.0 L 118.0 105.0" stroke="#C9D3DA" stroke-width="2"/><path d="M 144.0 92.0 L 118.0 118.0" stroke="#C9D3DA" stroke-width="2"/><path d="M 144.0 105.0 L 118.0 131.0" stroke="#C9D3DA" stroke-width="2"/><path d="M 144.0 118.0 L 118.0 144.0" stroke="#C9D3DA" stroke-width="2"/><path d="M 144.0 131.0 L 118.0 157.0" stroke="#C9D3DA" stroke-width="2"/><path d="M 144.0 144.0 L 118.0 170.0" stroke="#C9D3DA" stroke-width="2"/><path d="M 144.0 157.0 L 118.0 183.0" stroke="#C9D3DA" stroke-width="2"/><path d="M 144.0 170.0 L 118.0 196.0" stroke="#C9D3DA" stroke-width="2"/><path d="M 144.0 183.0 L 127.0 200.0" stroke="#C9D3DA" stroke-width="2"/>
<path d="M 146.0 36.0 L 202.0 96.0 L 202.0 109.0 L 146.0 51.0 Z" stroke="#5C6B78" stroke-width="3.5" fill="#EAEFF3"/><path d="M 146.0 204.0 L 202.0 144.0 L 202.0 131.0 L 146.0 189.0 Z" stroke="#5C6B78" stroke-width="3.5" fill="#EAEFF3"/><path d="M 162.8 58.0 L 162.8 64.0" stroke="#C9D3DA" stroke-width="2"/><path d="M 162.8 182.0 L 162.8 176.0" stroke="#C9D3DA" stroke-width="2"/><path d="M 179.6 76.0 L 179.6 82.0" stroke="#C9D3DA" stroke-width="2"/><path d="M 179.6 164.0 L 179.6 158.0" stroke="#C9D3DA" stroke-width="2"/><path d="M 193.6 91.0 L 193.6 97.0" stroke="#C9D3DA" stroke-width="2"/><path d="M 193.6 149.0 L 193.6 143.0" stroke="#C9D3DA" stroke-width="2"/>
<path d="M 204.0 120.0 A 32.0 32.0 0 1 0 268.0 120.0 A 32.0 32.0 0 1 0 204.0 120.0 Z M 221.0 120.0 A 15.0 15.0 0 1 0 251.0 120.0 A 15.0 15.0 0 1 0 221.0 120.0 Z" fill="#E3EFEF" fill-rule="evenodd" stroke="none"/><circle cx="236.0" cy="120.0" r="32.0" stroke="#0E7C7B" stroke-width="3.5" fill="none"/><circle cx="236.0" cy="120.0" r="27.2" stroke="#C9D3DA" stroke-width="2" fill="none"/><circle cx="236.0" cy="120.0" r="15.0" stroke="#0E7C7B" stroke-width="3.5" fill="none"/><circle cx="236.0" cy="120.0" r="19.8" stroke="#C9D3DA" stroke-width="2" fill="none"/><circle cx="236.0" cy="120.0" r="23.5" stroke="#C9D3DA" stroke-width="1.5" fill="none"/><circle cx="259.5" cy="120.0" r="5.1" stroke="#0E7C7B" stroke-width="2.5" fill="#E3EFEF"/><circle cx="252.6" cy="136.6" r="5.1" stroke="#0E7C7B" stroke-width="2.5" fill="#E3EFEF"/><circle cx="236.0" cy="143.5" r="5.1" stroke="#0E7C7B" stroke-width="2.5" fill="#E3EFEF"/><circle cx="219.4" cy="136.6" r="5.1" stroke="#0E7C7B" stroke-width="2.5" fill="#E3EFEF"/><circle cx="212.5" cy="120.0" r="5.1" stroke="#0E7C7B" stroke-width="2.5" fill="#E3EFEF"/><circle cx="219.4" cy="103.4" r="5.1" stroke="#0E7C7B" stroke-width="2.5" fill="#E3EFEF"/><circle cx="236.0" cy="96.5" r="5.1" stroke="#0E7C7B" stroke-width="2.5" fill="#E3EFEF"/><circle cx="252.6" cy="103.4" r="5.1" stroke="#0E7C7B" stroke-width="2.5" fill="#E3EFEF"/>
<rect x="202.0" y="100.0" width="34.0" height="40.0" rx="5" stroke="#5C6B78" stroke-width="3" fill="#EAEFF3"/>
<path d="M 268.0 120.0 L 322.0 120.0" stroke="#5C6B78" stroke-width="7"/>
<path d="M 292.0 90.0 L 250.0 90.0" stroke="#5C6B78" stroke-width="2.5"/><path d="M 257.2 86.5 L 250.0 90.0 L 257.2 93.5" stroke="#5C6B78" stroke-width="2.5" fill="none"/>
<path d="M 354 110 A 10 10 0 0 1 354 130" stroke="#0E7C7B" stroke-width="3" opacity="0.75"/><path d="M 354 99 A 21 21 0 0 1 354 141" stroke="#0E7C7B" stroke-width="3" opacity="0.55"/></g></g><path d="M 16 236 L 384 236" stroke="#C9D3DA" stroke-width="1.4" fill="none"/><g fill="none" stroke-linecap="round" stroke-linejoin="round"><path d="M 61.3 53.5 L 45.1 45.7" stroke="#C9D3DA" stroke-width="1.5" fill="none"/><circle cx="61.3" cy="53.5" r="2.5" fill="#0E7C7B"/><circle cx="45.1" cy="45.7" r="9" fill="#0E7C7B"/><text x="45.1" y="49.5" font-family="Manrope, Inter, system-ui, -apple-system, Segoe UI, sans-serif" font-size="10.5" font-weight="700" fill="#FFFFFF" text-anchor="middle">1</text><path d="M 97.4 63.0 L 81.7 54.3" stroke="#C9D3DA" stroke-width="1.5" fill="none"/><circle cx="97.4" cy="63.0" r="2.5" fill="#0E7C7B"/><circle cx="81.7" cy="54.3" r="9" fill="#0E7C7B"/><text x="81.7" y="58.1" font-family="Manrope, Inter, system-ui, -apple-system, Segoe UI, sans-serif" font-size="10.5" font-weight="700" fill="#FFFFFF" text-anchor="middle">2</text><path d="M 134.4 63.0 L 120.9 51.2" stroke="#C9D3DA" stroke-width="1.5" fill="none"/><circle cx="134.4" cy="63.0" r="2.5" fill="#0E7C7B"/><circle cx="120.9" cy="51.2" r="9" fill="#0E7C7B"/><text x="120.9" y="55.0" font-family="Manrope, Inter, system-ui, -apple-system, Segoe UI, sans-serif" font-size="10.5" font-weight="700" fill="#FFFFFF" text-anchor="middle">3</text><path d="M 181.0 82.0 L 173.0 65.9" stroke="#C9D3DA" stroke-width="1.5" fill="none"/><circle cx="181.0" cy="82.0" r="2.5" fill="#0E7C7B"/><circle cx="173.0" cy="65.9" r="9" fill="#0E7C7B"/><text x="173.0" y="69.7" font-family="Manrope, Inter, system-ui, -apple-system, Segoe UI, sans-serif" font-size="10.5" font-weight="700" fill="#FFFFFF" text-anchor="middle">4</text><path d="M 234.2 120.0 L 252.2 120.0" stroke="#C9D3DA" stroke-width="1.5" fill="none"/><circle cx="234.2" cy="120.0" r="2.5" fill="#0E7C7B"/><circle cx="252.2" cy="120.0" r="9" fill="#0E7C7B"/><text x="252.2" y="123.8" font-family="Manrope, Inter, system-ui, -apple-system, Segoe UI, sans-serif" font-size="10.5" font-weight="700" fill="#FFFFFF" text-anchor="middle">5</text><circle cx="24.0" cy="246.0" r="8.5" fill="#F5F7F9" stroke="#0E7C7B" stroke-width="1.6"/><text x="24.0" y="249.5" font-family="Manrope, Inter, system-ui, -apple-system, Segoe UI, sans-serif" font-size="10" font-weight="700" fill="#0E7C7B" text-anchor="middle">1</text><text x="38.0" y="250.0" font-family="Manrope, Inter, system-ui, -apple-system, Segoe UI, sans-serif" font-size="11" font-weight="500" fill="#2B3A44" text-anchor="start">маховик</text><circle cx="24.0" cy="267.0" r="8.5" fill="#F5F7F9" stroke="#0E7C7B" stroke-width="1.6"/><text x="24.0" y="270.5" font-family="Manrope, Inter, system-ui, -apple-system, Segoe UI, sans-serif" font-size="10" font-weight="700" fill="#0E7C7B" text-anchor="middle">2</text><text x="38.0" y="271.0" font-family="Manrope, Inter, system-ui, -apple-system, Segoe UI, sans-serif" font-size="11" font-weight="500" fill="#2B3A44" text-anchor="start">ведомый диск</text><circle cx="24.0" cy="288.0" r="8.5" fill="#F5F7F9" stroke="#0E7C7B" stroke-width="1.6"/><text x="24.0" y="291.5" font-family="Manrope, Inter, system-ui, -apple-system, Segoe UI, sans-serif" font-size="10" font-weight="700" fill="#0E7C7B" text-anchor="middle">3</text><text x="38.0" y="292.0" font-family="Manrope, Inter, system-ui, -apple-system, Segoe UI, sans-serif" font-size="11" font-weight="500" fill="#2B3A44" text-anchor="start">корзина сцепления</text><circle cx="214.0" cy="246.0" r="8.5" fill="#F5F7F9" stroke="#0E7C7B" stroke-width="1.6"/><text x="214.0" y="249.5" font-family="Manrope, Inter, system-ui, -apple-system, Segoe UI, sans-serif" font-size="10" font-weight="700" fill="#0E7C7B" text-anchor="middle">4</text><text x="228.0" y="250.0" font-family="Manrope, Inter, system-ui, -apple-system, Segoe UI, sans-serif" font-size="11" font-weight="500" fill="#2B3A44" text-anchor="start">диафрагменная пружина</text><circle cx="214.0" cy="267.0" r="8.5" fill="#F5F7F9" stroke="#0E7C7B" stroke-width="1.6"/><text x="214.0" y="270.5" font-family="Manrope, Inter, system-ui, -apple-system, Segoe UI, sans-serif" font-size="10" font-weight="700" fill="#0E7C7B" text-anchor="middle">5</text><text x="228.0" y="271.0" font-family="Manrope, Inter, system-ui, -apple-system, Segoe UI, sans-serif" font-size="11" font-weight="500" fill="#2B3A44" text-anchor="start">выжимной подшипник</text></g><text x="16.0" y="324.0" font-family="Manrope, Inter, system-ui, -apple-system, Segoe UI, sans-serif" font-size="12" font-weight="700" fill="#2B3A44" text-anchor="start">Схема сцепления</text></svg>