<svg xmlns="http://www.w3.org/2000/svg" viewBox="0 0 790 384" role="img" aria-label="Схема генератора"><title>Схема генератора</title><defs>
<pattern id="mRub" width="7" height="7" patternUnits="userSpaceOnUse">
  <path d="M0 7 L7 0 M-1 1 L1 -1 M6 8 L8 6" stroke="#C9D3DA" stroke-width="1"/>
  <path d="M0 0 L7 7 M-1 6 L1 8 M6 -1 L8 1" stroke="#C9D3DA" stroke-width="1"/>
</pattern>
<pattern id="mCer" width="8" height="8" patternUnits="userSpaceOnUse">
  <circle cx="2" cy="2" r="1.2" fill="#C9D3DA"/><circle cx="6" cy="6" r="1.2" fill="#C9D3DA"/>
</pattern>
<pattern id="mFric" width="6" height="6" patternUnits="userSpaceOnUse">
  <circle cx="1.5" cy="1.5" r="0.9" fill="#0E7C7B" opacity="0.55"/>
  <circle cx="4.5" cy="4.5" r="0.9" fill="#0E7C7B" opacity="0.55"/>
  <circle cx="4.5" cy="1.5" r="0.6" fill="#0E7C7B" opacity="0.35"/>
</pattern>
<pattern id="mMet" width="6" height="6" patternUnits="userSpaceOnUse" patternTransform="rotate(45)">
  <path d="M0 0 V6" stroke="#C9D3DA" stroke-width="1"/>
</pattern>
</defs><rect width="790" height="384" rx="16" fill="#F5F7F9"/><g id="hl"></g><g transform="translate(198,66)"><g fill="none" stroke-linecap="round" stroke-linejoin="round">
<rect x="104.0" y="62.0" width="124.0" height="116.0" rx="24" stroke="#5C6B78" stroke-width="3.4" fill="#EAEFF3"/>
<path d="M 106.0 64.0 L 106.0 64.0" stroke="#C9D3DA" stroke-width="1.1"/><path d="M 114.0 64.0 L 106.0 72.0" stroke="#C9D3DA" stroke-width="1.1"/><path d="M 122.0 64.0 L 106.0 80.0" stroke="#C9D3DA" stroke-width="1.1"/><path d="M 124.0 70.0 L 106.0 88.0" stroke="#C9D3DA" stroke-width="1.1"/><path d="M 124.0 78.0 L 106.0 96.0" stroke="#C9D3DA" stroke-width="1.1"/><path d="M 124.0 86.0 L 106.0 104.0" stroke="#C9D3DA" stroke-width="1.1"/><path d="M 124.0 94.0 L 106.0 112.0" stroke="#C9D3DA" stroke-width="1.1"/><path d="M 124.0 102.0 L 106.0 120.0" stroke="#C9D3DA" stroke-width="1.1"/><path d="M 124.0 110.0 L 106.0 128.0" stroke="#C9D3DA" stroke-width="1.1"/><path d="M 124.0 118.0 L 106.0 136.0" stroke="#C9D3DA" stroke-width="1.1"/><path d="M 124.0 126.0 L 106.0 144.0" stroke="#C9D3DA" stroke-width="1.1"/><path d="M 124.0 134.0 L 106.0 152.0" stroke="#C9D3DA" stroke-width="1.1"/><path d="M 124.0 142.0 L 106.0 160.0" stroke="#C9D3DA" stroke-width="1.1"/><path d="M 124.0 150.0 L 106.0 168.0" stroke="#C9D3DA" stroke-width="1.1"/><path d="M 124.0 158.0 L 106.0 176.0" stroke="#C9D3DA" stroke-width="1.1"/><path d="M 124.0 166.0 L 114.0 176.0" stroke="#C9D3DA" stroke-width="1.1"/>
<path d="M 132.0 66.0 L 132.0 174.0" stroke="#C9D3DA" stroke-width="1.1"/><path d="M 144.0 66.0 L 144.0 174.0" stroke="#C9D3DA" stroke-width="1.1"/><path d="M 156.0 66.0 L 156.0 174.0" stroke="#C9D3DA" stroke-width="1.1"/><path d="M 168.0 66.0 L 168.0 174.0" stroke="#C9D3DA" stroke-width="1.1"/><path d="M 180.0 66.0 L 180.0 174.0" stroke="#C9D3DA" stroke-width="1.1"/><path d="M 192.0 66.0 L 192.0 174.0" stroke="#C9D3DA" stroke-width="1.1"/><path d="M 204.0 66.0 L 204.0 174.0" stroke="#C9D3DA" stroke-width="1.1"/><path d="M 216.0 66.0 L 216.0 174.0" stroke="#C9D3DA" stroke-width="1.1"/>
<circle cx="166.0" cy="120.0" r="34.0" stroke="#5C6B78" stroke-width="2.3" fill="#EAEFF3"/>
<circle cx="166.0" cy="120.0" r="22.0" stroke="#0E7C7B" stroke-width="2.3" fill="#E3EFEF"/>
<path d="M 183.0 120.0 L 188.0 120.0" stroke="#0E7C7B" stroke-width="1.6"/><path d="M 180.7 128.5 L 185.1 131.0" stroke="#0E7C7B" stroke-width="1.6"/><path d="M 174.5 134.7 L 177.0 139.1" stroke="#0E7C7B" stroke-width="1.6"/><path d="M 166.0 137.0 L 166.0 142.0" stroke="#0E7C7B" stroke-width="1.6"/><path d="M 157.5 134.7 L 155.0 139.1" stroke="#0E7C7B" stroke-width="1.6"/><path d="M 151.3 128.5 L 146.9 131.0" stroke="#0E7C7B" stroke-width="1.6"/><path d="M 149.0 120.0 L 144.0 120.0" stroke="#0E7C7B" stroke-width="1.6"/><path d="M 151.3 111.5 L 146.9 109.0" stroke="#0E7C7B" stroke-width="1.6"/><path d="M 157.5 105.3 L 155.0 100.9" stroke="#0E7C7B" stroke-width="1.6"/><path d="M 166.0 103.0 L 166.0 98.0" stroke="#0E7C7B" stroke-width="1.6"/><path d="M 174.5 105.3 L 177.0 100.9" stroke="#0E7C7B" stroke-width="1.6"/><path d="M 180.7 111.5 L 185.1 109.0" stroke="#0E7C7B" stroke-width="1.6"/>
<circle cx="166.0" cy="120.0" r="9.0" stroke="#5C6B78" stroke-width="1.6" fill="#EAEFF3"/>
<path d="M 152.0 120.0 A 14.0 14.0 0 1 0 180.0 120.0 A 14.0 14.0 0 1 0 152.0 120.0 Z M 159.0 120.0 A 7.0 7.0 0 1 0 173.0 120.0 A 7.0 7.0 0 1 0 159.0 120.0 Z" fill="#E3EFEF" fill-rule="evenodd" stroke="none"/><circle cx="166.0" cy="120.0" r="14.0" stroke="#0E7C7B" stroke-width="3.4" fill="none"/><circle cx="166.0" cy="120.0" r="12.0" stroke="#C9D3DA" stroke-width="1.1" fill="none"/><circle cx="166.0" cy="120.0" r="7.0" stroke="#0E7C7B" stroke-width="3.4" fill="none"/><circle cx="166.0" cy="120.0" r="9.0" stroke="#C9D3DA" stroke-width="1.1" fill="none"/><circle cx="166.0" cy="120.0" r="10.5" stroke="#C9D3DA" stroke-width="1.1" fill="none"/><circle cx="176.5" cy="120.0" r="2.1" stroke="#0E7C7B" stroke-width="1.6" fill="#E3EFEF"/><circle cx="175.9" cy="119.4" r="0.6" stroke="none" stroke-width="0" fill="#FFFFFF"/><circle cx="171.2" cy="129.1" r="2.1" stroke="#0E7C7B" stroke-width="1.6" fill="#E3EFEF"/><circle cx="170.6" cy="128.5" r="0.6" stroke="none" stroke-width="0" fill="#FFFFFF"/><circle cx="160.8" cy="129.1" r="2.1" stroke="#0E7C7B" stroke-width="1.6" fill="#E3EFEF"/><circle cx="160.1" cy="128.5" r="0.6" stroke="none" stroke-width="0" fill="#FFFFFF"/><circle cx="155.5" cy="120.0" r="2.1" stroke="#0E7C7B" stroke-width="1.6" fill="#E3EFEF"/><circle cx="154.9" cy="119.4" r="0.6" stroke="none" stroke-width="0" fill="#FFFFFF"/><circle cx="160.8" cy="110.9" r="2.1" stroke="#0E7C7B" stroke-width="1.6" fill="#E3EFEF"/><circle cx="160.1" cy="110.3" r="0.6" stroke="none" stroke-width="0" fill="#FFFFFF"/><circle cx="171.2" cy="110.9" r="2.1" stroke="#0E7C7B" stroke-width="1.6" fill="#E3EFEF"/><circle cx="170.6" cy="110.3" r="0.6" stroke="none" stroke-width="0" fill="#FFFFFF"/>
<rect x="60.0" y="114.0" width="50.0" height="12.0" rx="3" stroke="none" stroke-width="0" fill="#EAEFF3"/><rect x="60.0" y="115.7" width="50.0" height="2.6" fill="#FFFFFF" opacity="0.65"/><path d="M 60.0 124.1 L 110.0 124.1" stroke="#C9D3DA" stroke-width="1.1"/><rect x="60.0" y="114.0" width="50.0" height="12.0" rx="3" stroke="#5C6B78" stroke-width="2.3" fill="none"/>
<circle cx="66.0" cy="120.0" r="30.0" stroke="#0E7C7B" stroke-width="3.4" fill="#E3EFEF"/><circle cx="66.0" cy="120.0" r="26.0" stroke="#C9D3DA" stroke-width="1.1" fill="none"/><circle cx="66.0" cy="120.0" r="22.0" stroke="#C9D3DA" stroke-width="1.1" fill="none"/><circle cx="66.0" cy="120.0" r="18.0" stroke="#C9D3DA" stroke-width="1.1" fill="none"/><circle cx="66.0" cy="120.0" r="8.4" stroke="#0E7C7B" stroke-width="2.3" fill="#E3EFEF"/><circle cx="57.0" cy="111.0" r="5.4" stroke="none" stroke-width="0" fill="#FFFFFF"/>
<rect x="228.0" y="84.0" width="20.0" height="22.0" rx="4" stroke="#5C6B78" stroke-width="2.3" fill="#EAEFF3"/>
<rect x="228.0" y="132.0" width="20.0" height="22.0" rx="4" stroke="#5C6B78" stroke-width="2.3" fill="#EAEFF3"/>
<path d="M 248.0 95.0 L 274.0 95.0" stroke="#C9D3DA" stroke-width="2.3"/><path d="M 248.0 143.0 L 274.0 143.0" stroke="#C9D3DA" stroke-width="2.3"/>
<rect x="274.0" y="86.0" width="16.0" height="18.0" rx="3" stroke="#0E7C7B" stroke-width="1.6" fill="#E3EFEF"/>
<rect x="274.0" y="134.0" width="16.0" height="18.0" rx="3" stroke="#0E7C7B" stroke-width="1.6" fill="#E3EFEF"/>
<rect x="150.0" y="40.0" width="32.0" height="22.0" rx="4" stroke="#5C6B78" stroke-width="1.6" fill="#EAEFF3"/>
<path d="M 166.0 62.0 L 166.0 40.0" stroke="#C9D3DA" stroke-width="1.1"/>
<path d="M 29.5 103.7 A 40.0 40.0 0 0 1 56.3 81.2" stroke="#C9D3DA" stroke-width="1.6" fill="none"/><path d="M 51.0 86.5 L 56.3 81.2 L 49.2 79.0" stroke="#C9D3DA" stroke-width="1.6" fill="none"/>
<path d="M 322 110 A 10 10 0 0 1 322 130" stroke="#0E7C7B" stroke-width="3" opacity="0.75"/><path d="M 322 99 A 21 21 0 0 1 322 141" stroke="#0E7C7B" stroke-width="3" opacity="0.55"/></g></g><g fill="none" stroke-linecap="round" stroke-linejoin="round"><path d="M 184.0 58.0 L 190.0 58.0 L 190.0 146.0 L 338.0 146.0" stroke="#F5F7F9" stroke-width="4.5" fill="none"/><path d="M 184.0 58.0 L 190.0 58.0 L 190.0 146.0 L 338.0 146.0" stroke="#C9D3DA" stroke-width="1.4" fill="none"/><circle cx="338.0" cy="146.0" r="3" fill="#0E7C7B"/><circle cx="184" cy="58.0" r="10" fill="#F5F7F9" stroke="#0E7C7B" stroke-width="1.8"/><text x="184.0" y="62.0" font-family="Manrope, Inter, system-ui, -apple-system, Segoe UI, sans-serif" font-size="11.5" font-weight="700" fill="#0E7C7B" text-anchor="middle">1</text><text x="170.0" y="62.0" font-family="Manrope, Inter, system-ui, -apple-system, Segoe UI, sans-serif" font-size="11.5" font-weight="500" fill="#2B3A44" text-anchor="end">корпус со статором</text><path d="M 184.0 186.0 L 190.0 186.0 L 190.0 186.0 L 264.0 186.0" stroke="#F5F7F9" stroke-width="4.5" fill="none"/><path d="M 184.0 186.0 L 190.0 186.0 L 190.0 186.0 L 264.0 186.0" stroke="#C9D3DA" stroke-width="1.4" fill="none"/><circle cx="264.0" cy="186.0" r="3" fill="#0E7C7B"/><circle cx="184" cy="186.0" r="10" fill="#F5F7F9" stroke="#0E7C7B" stroke-width="1.8"/><text x="184.0" y="190.0" font-family="Manrope, Inter, system-ui, -apple-system, Segoe UI, sans-serif" font-size="11.5" font-weight="700" fill="#0E7C7B" text-anchor="middle">2</text><text x="170.0" y="190.0" font-family="Manrope, Inter, system-ui, -apple-system, Segoe UI, sans-serif" font-size="11.5" font-weight="500" fill="#2B3A44" text-anchor="end">шкив с муфтой</text><path d="M 184.0 314.0 L 190.0 314.0 L 190.0 186.0 L 364.0 186.0" stroke="#F5F7F9" stroke-width="4.5" fill="none"/><path d="M 184.0 314.0 L 190.0 314.0 L 190.0 186.0 L 364.0 186.0" stroke="#C9D3DA" stroke-width="1.4" fill="none"/><circle cx="364.0" cy="186.0" r="3" fill="#0E7C7B"/><circle cx="184" cy="314.0" r="10" fill="#F5F7F9" stroke="#0E7C7B" stroke-width="1.8"/><text x="184.0" y="318.0" font-family="Manrope, Inter, system-ui, -apple-system, Segoe UI, sans-serif" font-size="11.5" font-weight="700" fill="#0E7C7B" text-anchor="middle">3</text><text x="170.0" y="318.0" font-family="Manrope, Inter, system-ui, -apple-system, Segoe UI, sans-serif" font-size="11.5" font-weight="500" fill="#2B3A44" text-anchor="end">подшипник ротора</text><path d="M 612.0 186.0 L 606.0 186.0 L 606.0 161.0 L 436.0 161.0" stroke="#F5F7F9" stroke-width="4.5" fill="none"/><path d="M 612.0 186.0 L 606.0 186.0 L 606.0 161.0 L 436.0 161.0" stroke="#C9D3DA" stroke-width="1.4" fill="none"/><circle cx="436.0" cy="161.0" r="3" fill="#0E7C7B"/><circle cx="612" cy="186.0" r="10" fill="#F5F7F9" stroke="#0E7C7B" stroke-width="1.8"/><text x="612.0" y="190.0" font-family="Manrope, Inter, system-ui, -apple-system, Segoe UI, sans-serif" font-size="11.5" font-weight="700" fill="#0E7C7B" text-anchor="middle">4</text><text x="626.0" y="190.0" font-family="Manrope, Inter, system-ui, -apple-system, Segoe UI, sans-serif" font-size="11.5" font-weight="500" fill="#2B3A44" text-anchor="start">силовые клеммы</text></g><path d="M 24 340 L 766 340" stroke="#C9D3DA" stroke-width="1.4" fill="none"/><text x="24.0" y="360.0" font-family="Manrope, Inter, system-ui, -apple-system, Segoe UI, sans-serif" font-size="13" font-weight="700" fill="#2B3A44" text-anchor="start">Схема генератора</text><text x="766.0" y="360.0" font-family="Manrope, Inter, system-ui, -apple-system, Segoe UI, sans-serif" font-size="11" font-weight="500" fill="#5C6B78" text-anchor="end">pro-stuk.com</text></svg>