<svg xmlns="http://www.w3.org/2000/svg" viewBox="0 0 790 384" role="img" aria-label="Схема катализатора"><title>Схема катализатора</title><defs>
<pattern id="mRub" width="7" height="7" patternUnits="userSpaceOnUse">
  <path d="M0 7 L7 0 M-1 1 L1 -1 M6 8 L8 6" stroke="#C9D3DA" stroke-width="1"/>
  <path d="M0 0 L7 7 M-1 6 L1 8 M6 -1 L8 1" stroke="#C9D3DA" stroke-width="1"/>
</pattern>
<pattern id="mCer" width="8" height="8" patternUnits="userSpaceOnUse">
  <circle cx="2" cy="2" r="1.2" fill="#C9D3DA"/><circle cx="6" cy="6" r="1.2" fill="#C9D3DA"/>
</pattern>
<pattern id="mFric" width="6" height="6" patternUnits="userSpaceOnUse">
  <circle cx="1.5" cy="1.5" r="0.9" fill="#0E7C7B" opacity="0.55"/>
  <circle cx="4.5" cy="4.5" r="0.9" fill="#0E7C7B" opacity="0.55"/>
  <circle cx="4.5" cy="1.5" r="0.6" fill="#0E7C7B" opacity="0.35"/>
</pattern>
<pattern id="mMet" width="6" height="6" patternUnits="userSpaceOnUse" patternTransform="rotate(45)">
  <path d="M0 0 V6" stroke="#C9D3DA" stroke-width="1"/>
</pattern>
</defs><rect width="790" height="384" rx="16" fill="#F5F7F9"/><g id="hl"></g><g transform="translate(198,66)"><g fill="none" stroke-linecap="round" stroke-linejoin="round">
<rect x="16.0" y="114.5" width="40.0" height="15.0" rx="3" stroke="none" stroke-width="0" fill="#EAEFF3"/><rect x="16.0" y="116.6" width="40.0" height="3.3" fill="#FFFFFF" opacity="0.65"/><path d="M 16.0 127.1 L 56.0 127.1" stroke="#C9D3DA" stroke-width="1.1"/><rect x="16.0" y="114.5" width="40.0" height="15.0" rx="3" stroke="#5C6B78" stroke-width="2.3" fill="none"/>
<path d="M 56.0 112.0 L 94.0 92.0 L 272.0 92.0 L 310.0 112.0" stroke="#5C6B78" stroke-width="3.4" fill="none"/>
<path d="M 56.0 132.0 L 94.0 152.0 L 272.0 152.0 L 310.0 132.0" stroke="#5C6B78" stroke-width="3.4" fill="none"/>
<path d="M 94.0 92.0 L 94.0 152.0" stroke="#5C6B78" stroke-width="2.3"/><path d="M 272.0 92.0 L 272.0 152.0" stroke="#5C6B78" stroke-width="2.3"/>
<rect x="106.0" y="92.0" width="158.0" height="60.0" rx="0" stroke="none" stroke-width="0" fill="url(#mCer)"/>
<path d="M 120.0 96.0 L 120.0 148.0" stroke="#0E7C7B" stroke-width="1.1"/><path d="M 131.0 96.0 L 131.0 148.0" stroke="#0E7C7B" stroke-width="1.1"/><path d="M 142.0 96.0 L 142.0 148.0" stroke="#0E7C7B" stroke-width="1.1"/><path d="M 153.0 96.0 L 153.0 148.0" stroke="#0E7C7B" stroke-width="1.1"/><path d="M 164.0 96.0 L 164.0 148.0" stroke="#0E7C7B" stroke-width="1.1"/><path d="M 175.0 96.0 L 175.0 148.0" stroke="#0E7C7B" stroke-width="1.1"/><path d="M 186.0 96.0 L 186.0 148.0" stroke="#0E7C7B" stroke-width="1.1"/><path d="M 197.0 96.0 L 197.0 148.0" stroke="#0E7C7B" stroke-width="1.1"/><path d="M 208.0 96.0 L 208.0 148.0" stroke="#0E7C7B" stroke-width="1.1"/><path d="M 219.0 96.0 L 219.0 148.0" stroke="#0E7C7B" stroke-width="1.1"/><path d="M 230.0 96.0 L 230.0 148.0" stroke="#0E7C7B" stroke-width="1.1"/><path d="M 241.0 96.0 L 241.0 148.0" stroke="#0E7C7B" stroke-width="1.1"/><path d="M 116.0 102.0 L 250.0 102.0" stroke="#0E7C7B" stroke-width="1.1"/><path d="M 116.0 110.0 L 250.0 110.0" stroke="#0E7C7B" stroke-width="1.1"/><path d="M 116.0 118.0 L 250.0 118.0" stroke="#0E7C7B" stroke-width="1.1"/><path d="M 116.0 126.0 L 250.0 126.0" stroke="#0E7C7B" stroke-width="1.1"/><path d="M 116.0 134.0 L 250.0 134.0" stroke="#0E7C7B" stroke-width="1.1"/><path d="M 116.0 142.0 L 250.0 142.0" stroke="#0E7C7B" stroke-width="1.1"/>
<path d="M 100.0 92.0 L 100.0 152.0" stroke="#C9D3DA" stroke-width="2.3"/><path d="M 266.0 92.0 L 266.0 152.0" stroke="#C9D3DA" stroke-width="2.3"/>
<rect x="310.0" y="114.5" width="38.0" height="15.0" rx="3" stroke="none" stroke-width="0" fill="#EAEFF3"/><rect x="310.0" y="116.6" width="38.0" height="3.3" fill="#FFFFFF" opacity="0.65"/><path d="M 310.0 127.1 L 348.0 127.1" stroke="#C9D3DA" stroke-width="1.1"/><rect x="310.0" y="114.5" width="38.0" height="15.0" rx="3" stroke="#5C6B78" stroke-width="2.3" fill="none"/>
<path d="M 78.0 96.0 L 90.0 78.0 L 90.0 66.0" stroke="#5C6B78" stroke-width="2.3" fill="none"/>
<rect x="82.0" y="54.0" width="18.0" height="14.0" rx="3" stroke="#5C6B78" stroke-width="1.6" fill="#EAEFF3"/>
<path d="M 284.0 96.0 L 296.0 78.0 L 296.0 66.0" stroke="#5C6B78" stroke-width="2.3" fill="none"/>
<rect x="288.0" y="54.0" width="18.0" height="14.0" rx="3" stroke="#5C6B78" stroke-width="1.6" fill="#EAEFF3"/>
<circle cx="183.0" cy="84.0" r="6.0" stroke="#C9D3DA" stroke-width="1.6" fill="none"/><path d="M 183.0 78.0 L 183.0 62.0" stroke="#C9D3DA" stroke-width="2.3"/>
<path d="M 84.0 190.0 L 284.0 190.0" stroke="#C9D3DA" stroke-width="1.6"/><path d="M 276.8 193.5 L 284.0 190.0 L 276.8 186.5" stroke="#C9D3DA" stroke-width="1.6" fill="none"/>
<path d="M 372 114 A 8 8 0 0 1 372 130" stroke="#0E7C7B" stroke-width="3" opacity="0.75"/><path d="M 372 105 A 17 17 0 0 1 372 139" stroke="#0E7C7B" stroke-width="3" opacity="0.55"/></g></g><g fill="none" stroke-linecap="round" stroke-linejoin="round"><path d="M 184.0 58.0 L 190.0 58.0 L 190.0 144.0 L 381.0 144.0" stroke="#F5F7F9" stroke-width="4.5" fill="none"/><path d="M 184.0 58.0 L 190.0 58.0 L 190.0 144.0 L 381.0 144.0" stroke="#C9D3DA" stroke-width="1.4" fill="none"/><circle cx="381.0" cy="144.0" r="5" fill="#F5F7F9"/><circle cx="381.0" cy="144.0" r="3" fill="#0E7C7B"/><circle cx="184" cy="58.0" r="10" fill="#F5F7F9" stroke="#0E7C7B" stroke-width="1.8"/><text x="184.0" y="62.0" font-family="Manrope, Inter, system-ui, -apple-system, Segoe UI, sans-serif" font-size="11.5" font-weight="700" fill="#0E7C7B" text-anchor="middle">1</text><text x="170.0" y="62.0" font-family="Manrope, Inter, system-ui, -apple-system, Segoe UI, sans-serif" font-size="11.5" font-weight="500" fill="#2B3A44" text-anchor="end">подвес</text><path d="M 184.0 186.0 L 190.0 186.0 L 190.0 162.0 L 381.0 162.0" stroke="#F5F7F9" stroke-width="4.5" fill="none"/><path d="M 184.0 186.0 L 190.0 186.0 L 190.0 162.0 L 381.0 162.0" stroke="#C9D3DA" stroke-width="1.4" fill="none"/><circle cx="381.0" cy="162.0" r="5" fill="#F5F7F9"/><circle cx="381.0" cy="162.0" r="3" fill="#0E7C7B"/><circle cx="184" cy="186.0" r="10" fill="#F5F7F9" stroke="#0E7C7B" stroke-width="1.8"/><text x="184.0" y="190.0" font-family="Manrope, Inter, system-ui, -apple-system, Segoe UI, sans-serif" font-size="11.5" font-weight="700" fill="#0E7C7B" text-anchor="middle">2</text><text x="170.0" y="190.0" font-family="Manrope, Inter, system-ui, -apple-system, Segoe UI, sans-serif" font-size="11.5" font-weight="500" fill="#2B3A44" text-anchor="end">корпус катализатора</text><path d="M 184.0 314.0 L 190.0 314.0 L 190.0 188.0 L 234.0 188.0" stroke="#F5F7F9" stroke-width="4.5" fill="none"/><path d="M 184.0 314.0 L 190.0 314.0 L 190.0 188.0 L 234.0 188.0" stroke="#C9D3DA" stroke-width="1.4" fill="none"/><circle cx="234.0" cy="188.0" r="5" fill="#F5F7F9"/><circle cx="234.0" cy="188.0" r="3" fill="#0E7C7B"/><circle cx="184" cy="314.0" r="10" fill="#F5F7F9" stroke="#0E7C7B" stroke-width="1.8"/><text x="184.0" y="318.0" font-family="Manrope, Inter, system-ui, -apple-system, Segoe UI, sans-serif" font-size="11.5" font-weight="700" fill="#0E7C7B" text-anchor="middle">3</text><text x="170.0" y="318.0" font-family="Manrope, Inter, system-ui, -apple-system, Segoe UI, sans-serif" font-size="11.5" font-weight="500" fill="#2B3A44" text-anchor="end">приёмная труба</text><path d="M 612.0 186.0 L 606.0 186.0 L 606.0 188.0 L 381.0 188.0" stroke="#F5F7F9" stroke-width="4.5" fill="none"/><path d="M 612.0 186.0 L 606.0 186.0 L 606.0 188.0 L 381.0 188.0" stroke="#C9D3DA" stroke-width="1.4" fill="none"/><circle cx="381.0" cy="188.0" r="5" fill="#F5F7F9"/><circle cx="381.0" cy="188.0" r="3" fill="#0E7C7B"/><circle cx="612" cy="186.0" r="10" fill="#F5F7F9" stroke="#0E7C7B" stroke-width="1.8"/><text x="612.0" y="190.0" font-family="Manrope, Inter, system-ui, -apple-system, Segoe UI, sans-serif" font-size="11.5" font-weight="700" fill="#0E7C7B" text-anchor="middle">4</text><text x="626.0" y="190.0" font-family="Manrope, Inter, system-ui, -apple-system, Segoe UI, sans-serif" font-size="11.5" font-weight="500" fill="#2B3A44" text-anchor="start">керамические соты</text></g><path d="M 24 340 L 766 340" stroke="#C9D3DA" stroke-width="1.4" fill="none"/><text x="24.0" y="360.0" font-family="Manrope, Inter, system-ui, -apple-system, Segoe UI, sans-serif" font-size="13" font-weight="700" fill="#2B3A44" text-anchor="start">Схема катализатора</text><text x="766.0" y="360.0" font-family="Manrope, Inter, system-ui, -apple-system, Segoe UI, sans-serif" font-size="11" font-weight="500" fill="#5C6B78" text-anchor="end">pro-stuk.com</text></svg>