<svg xmlns="http://www.w3.org/2000/svg" viewBox="0 0 790 384" role="img" aria-label="Схема опоры двигателя"><title>Схема опоры двигателя</title><rect width="790" height="384" rx="16" fill="#F5F7F9"/><g id="hl"></g><g transform="translate(198,66)"><g fill="none" stroke-linecap="round" stroke-linejoin="round">
<path d="M 78.0 40.0 L 222.0 40.0 L 222.0 74.0 L 78.0 74.0 Z" stroke="#5C6B78" stroke-width="3.4" fill="#EAEFF3"/>
<path d="M 80.0 42.0 L 80.0 42.0" stroke="#C9D3DA" stroke-width="1.3"/><path d="M 94.0 42.0 L 80.0 56.0" stroke="#C9D3DA" stroke-width="1.3"/><path d="M 108.0 42.0 L 80.0 70.0" stroke="#C9D3DA" stroke-width="1.3"/><path d="M 122.0 42.0 L 92.0 72.0" stroke="#C9D3DA" stroke-width="1.3"/><path d="M 136.0 42.0 L 106.0 72.0" stroke="#C9D3DA" stroke-width="1.3"/><path d="M 150.0 42.0 L 120.0 72.0" stroke="#C9D3DA" stroke-width="1.3"/><path d="M 164.0 42.0 L 134.0 72.0" stroke="#C9D3DA" stroke-width="1.3"/><path d="M 178.0 42.0 L 148.0 72.0" stroke="#C9D3DA" stroke-width="1.3"/><path d="M 192.0 42.0 L 162.0 72.0" stroke="#C9D3DA" stroke-width="1.3"/><path d="M 206.0 42.0 L 176.0 72.0" stroke="#C9D3DA" stroke-width="1.3"/><path d="M 220.0 42.0 L 190.0 72.0" stroke="#C9D3DA" stroke-width="1.3"/><path d="M 220.0 56.0 L 204.0 72.0" stroke="#C9D3DA" stroke-width="1.3"/>
<circle cx="100.0" cy="57.0" r="5.5" stroke="#5C6B78" stroke-width="1.6" fill="none"/><path d="M 96.7 57.0 L 103.3 57.0" stroke="#5C6B78" stroke-width="1.3"/><circle cx="200.0" cy="57.0" r="5.5" stroke="#5C6B78" stroke-width="1.6" fill="none"/><path d="M 196.7 57.0 L 203.3 57.0" stroke="#5C6B78" stroke-width="1.3"/>
<path d="M 134.0 74.0 L 166.0 74.0 L 166.0 92.0 L 134.0 92.0 Z" stroke="#5C6B78" stroke-width="3.4" fill="#EAEFF3"/>
<path d="M 96.0 92.0 L 204.0 92.0 L 204.0 156.0 L 96.0 156.0 Z" stroke="#0E7C7B" stroke-width="3.4" fill="#E3EFEF"/>
<path d="M 98.0 102.0 L 202.0 102.0" stroke="#0E7C7B" stroke-width="1.5"/><path d="M 98.0 115.0 L 202.0 115.0" stroke="#0E7C7B" stroke-width="1.5"/><path d="M 98.0 128.0 L 202.0 128.0" stroke="#0E7C7B" stroke-width="1.5"/><path d="M 98.0 141.0 L 202.0 141.0" stroke="#0E7C7B" stroke-width="1.5"/><path d="M 98.0 154.0 L 202.0 154.0" stroke="#0E7C7B" stroke-width="1.5"/>
<path d="M 134.0 156.0 L 166.0 156.0 L 166.0 174.0 L 134.0 174.0 Z" stroke="#5C6B78" stroke-width="3.4" fill="#EAEFF3"/>
<path d="M 70.0 174.0 L 230.0 174.0 L 230.0 206.0 L 70.0 206.0 Z" stroke="#5C6B78" stroke-width="3.4" fill="#EAEFF3"/>
<path d="M 72.0 176.0 L 72.0 176.0" stroke="#C9D3DA" stroke-width="1.3"/><path d="M 86.0 176.0 L 72.0 190.0" stroke="#C9D3DA" stroke-width="1.3"/><path d="M 100.0 176.0 L 72.0 204.0" stroke="#C9D3DA" stroke-width="1.3"/><path d="M 114.0 176.0 L 86.0 204.0" stroke="#C9D3DA" stroke-width="1.3"/><path d="M 128.0 176.0 L 100.0 204.0" stroke="#C9D3DA" stroke-width="1.3"/><path d="M 142.0 176.0 L 114.0 204.0" stroke="#C9D3DA" stroke-width="1.3"/><path d="M 156.0 176.0 L 128.0 204.0" stroke="#C9D3DA" stroke-width="1.3"/><path d="M 170.0 176.0 L 142.0 204.0" stroke="#C9D3DA" stroke-width="1.3"/><path d="M 184.0 176.0 L 156.0 204.0" stroke="#C9D3DA" stroke-width="1.3"/><path d="M 198.0 176.0 L 170.0 204.0" stroke="#C9D3DA" stroke-width="1.3"/><path d="M 212.0 176.0 L 184.0 204.0" stroke="#C9D3DA" stroke-width="1.3"/><path d="M 226.0 176.0 L 198.0 204.0" stroke="#C9D3DA" stroke-width="1.3"/><path d="M 228.0 188.0 L 212.0 204.0" stroke="#C9D3DA" stroke-width="1.3"/>
<circle cx="92.0" cy="190.0" r="5.5" stroke="#5C6B78" stroke-width="1.6" fill="none"/><path d="M 88.7 190.0 L 95.3 190.0" stroke="#5C6B78" stroke-width="1.3"/><circle cx="208.0" cy="190.0" r="5.5" stroke="#5C6B78" stroke-width="1.6" fill="none"/><path d="M 204.7 190.0 L 211.3 190.0" stroke="#5C6B78" stroke-width="1.3"/>
<path d="M 272 111 A 13 13 0 0 1 272 137" stroke="#0E7C7B" stroke-width="2.3" opacity="0.75"/><path d="M 272 96 A 28 28 0 0 1 272 152" stroke="#0E7C7B" stroke-width="2.3" opacity="0.55"/></g></g><g fill="none" stroke-linecap="round" stroke-linejoin="round"><path d="M 348.0 190.0 L 184.0 58.0" stroke="#F5F7F9" stroke-width="4.5" fill="none"/><path d="M 348.0 190.0 L 184.0 58.0" stroke="#C9D3DA" stroke-width="1.4" fill="none"/><circle cx="348.0" cy="190.0" r="3" fill="#0E7C7B"/><circle cx="184" cy="58.0" r="10" fill="#F5F7F9" stroke="#0E7C7B" stroke-width="1.8"/><text x="184.0" y="62.0" font-family="Manrope, Inter, system-ui, -apple-system, Segoe UI, sans-serif" font-size="11.5" font-weight="700" fill="#0E7C7B" text-anchor="middle">1</text><text x="170.0" y="62.0" font-family="Manrope, Inter, system-ui, -apple-system, Segoe UI, sans-serif" font-size="11.5" font-weight="500" fill="#2B3A44" text-anchor="end">резиновая подушка</text><path d="M 348.0 256.0 L 184.0 314.0" stroke="#F5F7F9" stroke-width="4.5" fill="none"/><path d="M 348.0 256.0 L 184.0 314.0" stroke="#C9D3DA" stroke-width="1.4" fill="none"/><circle cx="348.0" cy="256.0" r="3" fill="#0E7C7B"/><circle cx="184" cy="314.0" r="10" fill="#F5F7F9" stroke="#0E7C7B" stroke-width="1.8"/><text x="184.0" y="318.0" font-family="Manrope, Inter, system-ui, -apple-system, Segoe UI, sans-serif" font-size="11.5" font-weight="700" fill="#0E7C7B" text-anchor="middle">2</text><text x="170.0" y="318.0" font-family="Manrope, Inter, system-ui, -apple-system, Segoe UI, sans-serif" font-size="11.5" font-weight="500" fill="#2B3A44" text-anchor="end">опора кузова</text><path d="M 348.0 123.0 L 612.0 186.0" stroke="#F5F7F9" stroke-width="4.5" fill="none"/><path d="M 348.0 123.0 L 612.0 186.0" stroke="#C9D3DA" stroke-width="1.4" fill="none"/><circle cx="348.0" cy="123.0" r="3" fill="#0E7C7B"/><circle cx="612" cy="186.0" r="10" fill="#F5F7F9" stroke="#0E7C7B" stroke-width="1.8"/><text x="612.0" y="190.0" font-family="Manrope, Inter, system-ui, -apple-system, Segoe UI, sans-serif" font-size="11.5" font-weight="700" fill="#0E7C7B" text-anchor="middle">3</text><text x="626.0" y="190.0" font-family="Manrope, Inter, system-ui, -apple-system, Segoe UI, sans-serif" font-size="11.5" font-weight="500" fill="#2B3A44" text-anchor="start">кронштейн двигателя</text></g><path d="M 24 340 L 766 340" stroke="#C9D3DA" stroke-width="1.4" fill="none"/><text x="24.0" y="360.0" font-family="Manrope, Inter, system-ui, -apple-system, Segoe UI, sans-serif" font-size="13" font-weight="700" fill="#2B3A44" text-anchor="start">Схема опоры двигателя</text><text x="766.0" y="360.0" font-family="Manrope, Inter, system-ui, -apple-system, Segoe UI, sans-serif" font-size="11" font-weight="500" fill="#5C6B78" text-anchor="end">pro-stuk.com</text></svg>