<svg xmlns="http://www.w3.org/2000/svg" viewBox="0 0 790 384" role="img" aria-label="Схема рулевой рейки"><title>Схема рулевой рейки</title><defs>
<pattern id="mRub" width="7" height="7" patternUnits="userSpaceOnUse">
  <path d="M0 7 L7 0 M-1 1 L1 -1 M6 8 L8 6" stroke="#C9D3DA" stroke-width="1"/>
  <path d="M0 0 L7 7 M-1 6 L1 8 M6 -1 L8 1" stroke="#C9D3DA" stroke-width="1"/>
</pattern>
<pattern id="mCer" width="8" height="8" patternUnits="userSpaceOnUse">
  <circle cx="2" cy="2" r="1.2" fill="#C9D3DA"/><circle cx="6" cy="6" r="1.2" fill="#C9D3DA"/>
</pattern>
<pattern id="mFric" width="6" height="6" patternUnits="userSpaceOnUse">
  <circle cx="1.5" cy="1.5" r="0.9" fill="#0E7C7B" opacity="0.55"/>
  <circle cx="4.5" cy="4.5" r="0.9" fill="#0E7C7B" opacity="0.55"/>
  <circle cx="4.5" cy="1.5" r="0.6" fill="#0E7C7B" opacity="0.35"/>
</pattern>
<pattern id="mMet" width="6" height="6" patternUnits="userSpaceOnUse" patternTransform="rotate(45)">
  <path d="M0 0 V6" stroke="#C9D3DA" stroke-width="1"/>
</pattern>
</defs><rect width="790" height="384" rx="16" fill="#F5F7F9"/><g id="hl"></g><g transform="translate(198,66)"><g fill="none" stroke-linecap="round" stroke-linejoin="round">
<rect x="92.0" y="110.0" width="216.0" height="38.0" rx="19" stroke="#5C6B78" stroke-width="3.4" fill="#EAEFF3"/>
<rect x="60.0" y="121.0" width="280.0" height="16.0" rx="3" stroke="none" stroke-width="0" fill="#EAEFF3"/><rect x="60.0" y="123.2" width="280.0" height="3.5" fill="#FFFFFF" opacity="0.65"/><path d="M 60.0 134.4 L 340.0 134.4" stroke="#C9D3DA" stroke-width="1.1"/><rect x="60.0" y="121.0" width="280.0" height="16.0" rx="3" stroke="#5C6B78" stroke-width="2.3" fill="none"/>
<rect x="92.0" y="110.0" width="216.0" height="38.0" rx="19" stroke="#5C6B78" stroke-width="3.4" fill="none"/>
<rect x="138.0" y="104.0" width="128.0" height="24.0" rx="3" stroke="#C9D3DA" stroke-width="1.1" fill="#F5F7F9"/>
<path d="M 146.0 112.0 L 150.0 101.0 L 159.0 101.0 L 163.0 112.0 Z" stroke="#5C6B78" stroke-width="1.6" fill="#EAEFF3"/><path d="M 161.0 112.0 L 165.0 101.0 L 174.0 101.0 L 178.0 112.0 Z" stroke="#5C6B78" stroke-width="1.6" fill="#EAEFF3"/><path d="M 176.0 112.0 L 180.0 101.0 L 189.0 101.0 L 193.0 112.0 Z" stroke="#5C6B78" stroke-width="1.6" fill="#EAEFF3"/><path d="M 191.0 112.0 L 195.0 101.0 L 204.0 101.0 L 208.0 112.0 Z" stroke="#5C6B78" stroke-width="1.6" fill="#EAEFF3"/><path d="M 206.0 112.0 L 210.0 101.0 L 219.0 101.0 L 223.0 112.0 Z" stroke="#5C6B78" stroke-width="1.6" fill="#EAEFF3"/><path d="M 221.0 112.0 L 225.0 101.0 L 234.0 101.0 L 238.0 112.0 Z" stroke="#5C6B78" stroke-width="1.6" fill="#EAEFF3"/><path d="M 236.0 112.0 L 240.0 101.0 L 249.0 101.0 L 253.0 112.0 Z" stroke="#5C6B78" stroke-width="1.6" fill="#EAEFF3"/>
<path d="M 229.9 63.5 L 237.0 64.4 L 237.0 67.6 L 229.9 68.5 L 227.9 75.8 L 233.6 80.1 L 232.0 82.9 L 225.4 80.1 L 220.1 85.4 L 222.9 92.0 L 220.1 93.6 L 215.8 87.9 L 208.5 89.9 L 207.6 97.0 L 204.4 97.0 L 203.5 89.9 L 196.2 87.9 L 191.9 93.6 L 189.1 92.0 L 191.9 85.4 L 186.6 80.1 L 180.0 82.9 L 178.4 80.1 L 184.1 75.8 L 182.1 68.5 L 175.0 67.6 L 175.0 64.4 L 182.1 63.5 L 184.1 56.2 L 178.4 51.9 L 180.0 49.1 L 186.6 51.9 L 191.9 46.6 L 189.1 40.0 L 191.9 38.4 L 196.2 44.1 L 203.5 42.1 L 204.4 35.0 L 207.6 35.0 L 208.5 42.1 L 215.8 44.1 L 220.1 38.4 L 222.9 40.0 L 220.1 46.6 L 225.4 51.9 L 232.0 49.1 L 233.6 51.9 L 227.9 56.2 Z" stroke="#0E7C7B" stroke-width="2.3" fill="#E3EFEF"/>
<circle cx="206.0" cy="66.0" r="10.0" stroke="#C9D3DA" stroke-width="1.1" fill="none"/>
<rect x="201.5" y="20.0" width="9.0" height="42.0" rx="3" stroke="none" stroke-width="0" fill="#EAEFF3"/><rect x="202.8" y="20.0" width="2.0" height="42.0" fill="#FFFFFF" opacity="0.65"/><path d="M 209.1 20.0 L 209.1 62.0" stroke="#C9D3DA" stroke-width="1.1"/><rect x="201.5" y="20.0" width="9.0" height="42.0" rx="3" stroke="#5C6B78" stroke-width="2.3" fill="none"/>
<path d="M 212.0 24.0 L 215.0 24.0" stroke="#5C6B78" stroke-width="1.6"/><path d="M 210.9 27.5 L 213.3 29.3" stroke="#5C6B78" stroke-width="1.6"/><path d="M 207.9 29.7 L 208.8 32.6" stroke="#5C6B78" stroke-width="1.6"/><path d="M 204.1 29.7 L 203.2 32.6" stroke="#5C6B78" stroke-width="1.6"/><path d="M 201.1 27.5 L 198.7 29.3" stroke="#5C6B78" stroke-width="1.6"/><path d="M 200.0 24.0 L 197.0 24.0" stroke="#5C6B78" stroke-width="1.6"/><path d="M 201.1 20.5 L 198.7 18.7" stroke="#5C6B78" stroke-width="1.6"/><path d="M 204.1 18.3 L 203.2 15.4" stroke="#5C6B78" stroke-width="1.6"/><path d="M 207.9 18.3 L 208.8 15.4" stroke="#5C6B78" stroke-width="1.6"/><path d="M 210.9 20.5 L 213.3 18.7" stroke="#5C6B78" stroke-width="1.6"/>
<path d="M 168.9 46.3 A 42.0 42.0 0 0 1 198.7 24.6" stroke="#C9D3DA" stroke-width="1.6" fill="none"/><path d="M 193.0 29.6 L 198.7 24.6 L 191.7 21.9" stroke="#C9D3DA" stroke-width="1.6" fill="none"/>
<path d="M 87.0 116.0 L 97.0 116.0 L 97.0 142.0 L 87.0 142.0 Z" stroke="#5C6B78" stroke-width="1.6" fill="#EAEFF3"/><path d="M 97.0 116.0 L 89.5 129.0 L 97.0 142.0" stroke="#5C6B78" stroke-width="1.1" fill="none"/><circle cx="90.3" cy="129.0" r="1.6" stroke="#5C6B78" stroke-width="1.1" fill="#5C6B78"/><path d="M 303.0 116.0 L 313.0 116.0 L 313.0 142.0 L 303.0 142.0 Z" stroke="#5C6B78" stroke-width="1.6" fill="#EAEFF3"/><path d="M 313.0 116.0 L 305.5 129.0 L 313.0 142.0" stroke="#5C6B78" stroke-width="1.1" fill="none"/><circle cx="306.3" cy="129.0" r="1.6" stroke="#5C6B78" stroke-width="1.1" fill="#5C6B78"/>
<path d="M 60.0 112.0 Q 64.0 103.0 68.0 112.0" stroke="#0E7C7B" stroke-width="2.3" fill="none"/><path d="M 68.0 112.0 Q 72.0 103.0 76.0 112.0" stroke="#0E7C7B" stroke-width="2.3" fill="none"/><path d="M 76.0 112.0 Q 80.0 103.0 84.0 112.0" stroke="#0E7C7B" stroke-width="2.3" fill="none"/><path d="M 84.0 112.0 Q 88.0 103.0 92.0 112.0" stroke="#0E7C7B" stroke-width="2.3" fill="none"/>
<path d="M 60.0 146.0 Q 64.0 155.0 68.0 146.0" stroke="#0E7C7B" stroke-width="2.3" fill="none"/><path d="M 68.0 146.0 Q 72.0 155.0 76.0 146.0" stroke="#0E7C7B" stroke-width="2.3" fill="none"/><path d="M 76.0 146.0 Q 80.0 155.0 84.0 146.0" stroke="#0E7C7B" stroke-width="2.3" fill="none"/><path d="M 84.0 146.0 Q 88.0 155.0 92.0 146.0" stroke="#0E7C7B" stroke-width="2.3" fill="none"/>
<path d="M 60.0 112.0 L 60.0 146.0" stroke="#0E7C7B" stroke-width="2.3"/><path d="M 92.0 112.0 L 92.0 146.0" stroke="#0E7C7B" stroke-width="2.3"/>
<path d="M 308.0 112.0 Q 312.0 103.0 316.0 112.0" stroke="#0E7C7B" stroke-width="2.3" fill="none"/><path d="M 316.0 112.0 Q 320.0 103.0 324.0 112.0" stroke="#0E7C7B" stroke-width="2.3" fill="none"/><path d="M 324.0 112.0 Q 328.0 103.0 332.0 112.0" stroke="#0E7C7B" stroke-width="2.3" fill="none"/><path d="M 332.0 112.0 Q 336.0 103.0 340.0 112.0" stroke="#0E7C7B" stroke-width="2.3" fill="none"/>
<path d="M 308.0 146.0 Q 312.0 155.0 316.0 146.0" stroke="#0E7C7B" stroke-width="2.3" fill="none"/><path d="M 316.0 146.0 Q 320.0 155.0 324.0 146.0" stroke="#0E7C7B" stroke-width="2.3" fill="none"/><path d="M 324.0 146.0 Q 328.0 155.0 332.0 146.0" stroke="#0E7C7B" stroke-width="2.3" fill="none"/><path d="M 332.0 146.0 Q 336.0 155.0 340.0 146.0" stroke="#0E7C7B" stroke-width="2.3" fill="none"/>
<path d="M 308.0 112.0 L 308.0 146.0" stroke="#0E7C7B" stroke-width="2.3"/><path d="M 340.0 112.0 L 340.0 146.0" stroke="#0E7C7B" stroke-width="2.3"/>
<rect x="40.0" y="123.5" width="20.0" height="11.0" rx="3" stroke="none" stroke-width="0" fill="#EAEFF3"/><rect x="40.0" y="125.0" width="20.0" height="2.4" fill="#FFFFFF" opacity="0.65"/><path d="M 40.0 132.7 L 60.0 132.7" stroke="#C9D3DA" stroke-width="1.1"/><rect x="40.0" y="123.5" width="20.0" height="11.0" rx="3" stroke="#5C6B78" stroke-width="2.3" fill="none"/><path d="M 40.0 123.5 L 42.5 125.9 M 45.0 123.5 L 47.5 125.9 M 50.0 123.5 L 52.5 125.9 M 55.0 123.5 L 57.5 125.9 M 40.0 134.5 L 42.5 132.1 M 45.0 134.5 L 47.5 132.1 M 50.0 134.5 L 52.5 132.1 M 55.0 134.5 L 57.5 132.1 " stroke="#5C6B78" stroke-width="1.1" fill="none"/>
<circle cx="30.0" cy="129.0" r="13.0" stroke="#5C6B78" stroke-width="3.4" fill="#EAEFF3"/><circle cx="30.0" cy="129.0" r="5.0" stroke="#C9D3DA" stroke-width="1.1" fill="none"/>
<circle cx="370.0" cy="129.0" r="13.0" stroke="#5C6B78" stroke-width="3.4" fill="#EAEFF3"/><circle cx="370.0" cy="129.0" r="5.0" stroke="#C9D3DA" stroke-width="1.1" fill="none"/>
<rect x="340.0" y="123.5" width="20.0" height="11.0" rx="3" stroke="none" stroke-width="0" fill="#EAEFF3"/><rect x="340.0" y="125.0" width="20.0" height="2.4" fill="#FFFFFF" opacity="0.65"/><path d="M 340.0 132.7 L 360.0 132.7" stroke="#C9D3DA" stroke-width="1.1"/><rect x="340.0" y="123.5" width="20.0" height="11.0" rx="3" stroke="#5C6B78" stroke-width="2.3" fill="none"/><path d="M 340.0 123.5 L 342.5 125.9 M 345.0 123.5 L 347.5 125.9 M 350.0 123.5 L 352.5 125.9 M 355.0 123.5 L 357.5 125.9 M 340.0 134.5 L 342.5 132.1 M 345.0 134.5 L 347.5 132.1 M 350.0 134.5 L 352.5 132.1 M 355.0 134.5 L 357.5 132.1 " stroke="#5C6B78" stroke-width="1.1" fill="none"/>
<path d="M 60 52 A 10 10 0 0 1 60 72" stroke="#0E7C7B" stroke-width="3" opacity="0.75"/><path d="M 60 41 A 21 21 0 0 1 60 83" stroke="#0E7C7B" stroke-width="3" opacity="0.55"/></g></g><g fill="none" stroke-linecap="round" stroke-linejoin="round"><path d="M 184.0 186.0 L 190.0 186.0 L 190.0 172.0 L 398.0 172.0" stroke="#F5F7F9" stroke-width="4.5" fill="none"/><path d="M 184.0 186.0 L 190.0 186.0 L 190.0 172.0 L 398.0 172.0" stroke="#C9D3DA" stroke-width="1.4" fill="none"/><circle cx="398.0" cy="172.0" r="5" fill="#F5F7F9"/><circle cx="398.0" cy="172.0" r="3" fill="#0E7C7B"/><circle cx="184" cy="186.0" r="10" fill="#F5F7F9" stroke="#0E7C7B" stroke-width="1.8"/><text x="184.0" y="190.0" font-family="Manrope, Inter, system-ui, -apple-system, Segoe UI, sans-serif" font-size="11.5" font-weight="700" fill="#0E7C7B" text-anchor="middle">1</text><text x="170.0" y="190.0" font-family="Manrope, Inter, system-ui, -apple-system, Segoe UI, sans-serif" font-size="11.5" font-weight="500" fill="#2B3A44" text-anchor="end">зубчатая рейка</text><path d="M 612.0 58.0 L 606.0 58.0 L 606.0 90.0 L 404.0 90.0" stroke="#F5F7F9" stroke-width="4.5" fill="none"/><path d="M 612.0 58.0 L 606.0 58.0 L 606.0 90.0 L 404.0 90.0" stroke="#C9D3DA" stroke-width="1.4" fill="none"/><circle cx="404.0" cy="90.0" r="5" fill="#F5F7F9"/><circle cx="404.0" cy="90.0" r="3" fill="#0E7C7B"/><circle cx="612" cy="58.0" r="10" fill="#F5F7F9" stroke="#0E7C7B" stroke-width="1.8"/><text x="612.0" y="62.0" font-family="Manrope, Inter, system-ui, -apple-system, Segoe UI, sans-serif" font-size="11.5" font-weight="700" fill="#0E7C7B" text-anchor="middle">2</text><text x="626.0" y="62.0" font-family="Manrope, Inter, system-ui, -apple-system, Segoe UI, sans-serif" font-size="11.5" font-weight="500" fill="#2B3A44" text-anchor="start">вал рулевой колонки</text><path d="M 612.0 143.3 L 606.0 143.3 L 606.0 132.0 L 404.0 132.0" stroke="#F5F7F9" stroke-width="4.5" fill="none"/><path d="M 612.0 143.3 L 606.0 143.3 L 606.0 132.0 L 404.0 132.0" stroke="#C9D3DA" stroke-width="1.4" fill="none"/><circle cx="404.0" cy="132.0" r="5" fill="#F5F7F9"/><circle cx="404.0" cy="132.0" r="3" fill="#0E7C7B"/><circle cx="612" cy="143.3" r="10" fill="#F5F7F9" stroke="#0E7C7B" stroke-width="1.8"/><text x="612.0" y="147.3" font-family="Manrope, Inter, system-ui, -apple-system, Segoe UI, sans-serif" font-size="11.5" font-weight="700" fill="#0E7C7B" text-anchor="middle">3</text><text x="626.0" y="147.3" font-family="Manrope, Inter, system-ui, -apple-system, Segoe UI, sans-serif" font-size="11.5" font-weight="500" fill="#2B3A44" text-anchor="start">шестерня</text><path d="M 612.0 228.7 L 606.0 228.7 L 606.0 178.0 L 522.0 178.0" stroke="#F5F7F9" stroke-width="4.5" fill="none"/><path d="M 612.0 228.7 L 606.0 228.7 L 606.0 178.0 L 522.0 178.0" stroke="#C9D3DA" stroke-width="1.4" fill="none"/><circle cx="522.0" cy="178.0" r="5" fill="#F5F7F9"/><circle cx="522.0" cy="178.0" r="3" fill="#0E7C7B"/><circle cx="612" cy="228.7" r="10" fill="#F5F7F9" stroke="#0E7C7B" stroke-width="1.8"/><text x="612.0" y="232.7" font-family="Manrope, Inter, system-ui, -apple-system, Segoe UI, sans-serif" font-size="11.5" font-weight="700" fill="#0E7C7B" text-anchor="middle">4</text><text x="626.0" y="232.7" font-family="Manrope, Inter, system-ui, -apple-system, Segoe UI, sans-serif" font-size="11.5" font-weight="500" fill="#2B3A44" text-anchor="start">пыльник</text><path d="M 612.0 314.0 L 606.0 314.0 L 606.0 195.0 L 568.0 195.0" stroke="#F5F7F9" stroke-width="4.5" fill="none"/><path d="M 612.0 314.0 L 606.0 314.0 L 606.0 195.0 L 568.0 195.0" stroke="#C9D3DA" stroke-width="1.4" fill="none"/><circle cx="568.0" cy="195.0" r="5" fill="#F5F7F9"/><circle cx="568.0" cy="195.0" r="3" fill="#0E7C7B"/><circle cx="612" cy="314.0" r="10" fill="#F5F7F9" stroke="#0E7C7B" stroke-width="1.8"/><text x="612.0" y="318.0" font-family="Manrope, Inter, system-ui, -apple-system, Segoe UI, sans-serif" font-size="11.5" font-weight="700" fill="#0E7C7B" text-anchor="middle">5</text><text x="626.0" y="318.0" font-family="Manrope, Inter, system-ui, -apple-system, Segoe UI, sans-serif" font-size="11.5" font-weight="500" fill="#2B3A44" text-anchor="start">наконечник тяги</text></g><path d="M 24 340 L 766 340" stroke="#C9D3DA" stroke-width="1.4" fill="none"/><text x="24.0" y="360.0" font-family="Manrope, Inter, system-ui, -apple-system, Segoe UI, sans-serif" font-size="13" font-weight="700" fill="#2B3A44" text-anchor="start">Схема рулевой рейки</text><text x="766.0" y="360.0" font-family="Manrope, Inter, system-ui, -apple-system, Segoe UI, sans-serif" font-size="11" font-weight="500" fill="#5C6B78" text-anchor="end">pro-stuk.com</text></svg>