<svg xmlns="http://www.w3.org/2000/svg" viewBox="0 0 560 320" role="img" aria-label="Схема тормозного суппорта"><title>Схема тормозного суппорта</title><rect width="560" height="320" rx="16" fill="#F5F7F9"/><g transform="translate(8,26) scale(0.9)"><g fill="none" stroke-linecap="round" stroke-linejoin="round">
<rect x="136.0" y="46.0" width="32.0" height="158.0" rx="0" stroke="#5C6B78" stroke-width="3.5" fill="#EAEFF3"/>
<path d="M 138.0 48.0 L 138.0 48.0" stroke="#C9D3DA" stroke-width="2"/><path d="M 150.0 48.0 L 138.0 60.0" stroke="#C9D3DA" stroke-width="2"/><path d="M 162.0 48.0 L 138.0 72.0" stroke="#C9D3DA" stroke-width="2"/><path d="M 166.0 56.0 L 138.0 84.0" stroke="#C9D3DA" stroke-width="2"/><path d="M 166.0 68.0 L 138.0 96.0" stroke="#C9D3DA" stroke-width="2"/><path d="M 166.0 80.0 L 138.0 108.0" stroke="#C9D3DA" stroke-width="2"/><path d="M 166.0 92.0 L 138.0 120.0" stroke="#C9D3DA" stroke-width="2"/><path d="M 166.0 104.0 L 138.0 132.0" stroke="#C9D3DA" stroke-width="2"/><path d="M 166.0 116.0 L 138.0 144.0" stroke="#C9D3DA" stroke-width="2"/><path d="M 166.0 128.0 L 138.0 156.0" stroke="#C9D3DA" stroke-width="2"/><path d="M 166.0 140.0 L 138.0 168.0" stroke="#C9D3DA" stroke-width="2"/><path d="M 166.0 152.0 L 138.0 180.0" stroke="#C9D3DA" stroke-width="2"/><path d="M 166.0 164.0 L 138.0 192.0" stroke="#C9D3DA" stroke-width="2"/><path d="M 166.0 176.0 L 140.0 202.0" stroke="#C9D3DA" stroke-width="2"/><path d="M 166.0 188.0 L 152.0 202.0" stroke="#C9D3DA" stroke-width="2"/>
<rect x="118.0" y="78.0" width="16.0" height="90.0" rx="3" stroke="#0E7C7B" stroke-width="3" fill="#E3EFEF"/>
<rect x="112.0" y="84.0" width="6.0" height="78.0" rx="2" stroke="#C9D3DA" stroke-width="2.5" fill="#F5F7F9"/>
<rect x="170.0" y="78.0" width="16.0" height="90.0" rx="3" stroke="#0E7C7B" stroke-width="3" fill="#E3EFEF"/>
<rect x="186.0" y="84.0" width="6.0" height="78.0" rx="2" stroke="#C9D3DA" stroke-width="2.5" fill="#F5F7F9"/>
<rect x="196.0" y="62.0" width="66.0" height="116.0" rx="10" stroke="#0E7C7B" stroke-width="3.5" fill="#E3EFEF"/>
<rect x="202.0" y="88.0" width="28.0" height="70.0" rx="4" stroke="#0E7C7B" stroke-width="3" fill="#E3EFEF"/>
<path d="M 196.0 70.0 L 106.0 70.0" stroke="#0E7C7B" stroke-width="7"/>
<path d="M 196.0 172.0 L 106.0 172.0" stroke="#0E7C7B" stroke-width="7"/>
<rect x="98.0" y="60.0" width="14.0" height="122.0" rx="4" stroke="#0E7C7B" stroke-width="3.5" fill="#E3EFEF"/>
<path d="M 262.0 84.0 L 292.0 84.0" stroke="#5C6B78" stroke-width="5"/><circle cx="298.0" cy="84.0" r="8.0" stroke="#5C6B78" stroke-width="2.5" fill="#EAEFF3"/>
<path d="M 262.0 158.0 L 292.0 158.0" stroke="#5C6B78" stroke-width="5"/><circle cx="298.0" cy="158.0" r="8.0" stroke="#5C6B78" stroke-width="2.5" fill="#EAEFF3"/>
<path d="M 262.0 120.0 L 292.0 110.0 L 316.0 118.0" stroke="#5C6B78" stroke-width="3.5" fill="none"/>
<circle cx="229.0" cy="52.0" r="6.0" stroke="#5C6B78" stroke-width="2.5" fill="#EAEFF3"/>
<path d="M 96.9 46.4 A 96.0 96.0 0 0 1 184.8 34.8" stroke="#5C6B78" stroke-width="2.5" fill="none"/><path d="M 177.5 36.2 L 184.8 34.8 L 180.1 29.0" stroke="#5C6B78" stroke-width="2.5" fill="none"/>
<path d="M 352 131 A 9 9 0 0 1 352 149" stroke="#0E7C7B" stroke-width="3" opacity="0.75"/><path d="M 352 121 A 19 19 0 0 1 352 159" stroke="#0E7C7B" stroke-width="3" opacity="0.55"/></g></g><g fill="none" stroke-linecap="round" stroke-linejoin="round"><path d="M 144.8 80.0 L 358.0 52.0 L 372.0 52.0" stroke="#C9D3DA" stroke-width="1.5" fill="none"/><circle cx="144.8" cy="80.0" r="3" fill="#0E7C7B"/><circle cx="384.0" cy="52.0" r="9.5" fill="#F5F7F9" stroke="#0E7C7B" stroke-width="1.8"/><text x="384.0" y="56.0" font-family="Manrope, Inter, system-ui, -apple-system, Segoe UI, sans-serif" font-size="11" font-weight="700" fill="#0E7C7B" text-anchor="middle">1</text><text x="401.0" y="56.0" font-family="Manrope, Inter, system-ui, -apple-system, Segoe UI, sans-serif" font-size="11.5" font-weight="500" fill="#2B3A44" text-anchor="start">тормозной диск</text><path d="M 214.1 89.0 L 358.0 98.0 L 372.0 98.0" stroke="#C9D3DA" stroke-width="1.5" fill="none"/><circle cx="214.1" cy="89.0" r="3" fill="#0E7C7B"/><circle cx="384.0" cy="98.0" r="9.5" fill="#F5F7F9" stroke="#0E7C7B" stroke-width="1.8"/><text x="384.0" y="102.0" font-family="Manrope, Inter, system-ui, -apple-system, Segoe UI, sans-serif" font-size="11" font-weight="700" fill="#0E7C7B" text-anchor="middle">2</text><text x="401.0" y="102.0" font-family="Manrope, Inter, system-ui, -apple-system, Segoe UI, sans-serif" font-size="11.5" font-weight="500" fill="#2B3A44" text-anchor="start">скоба суппорта</text><path d="M 270.8 125.0 L 358.0 144.0 L 372.0 144.0" stroke="#C9D3DA" stroke-width="1.5" fill="none"/><circle cx="270.8" cy="125.0" r="3" fill="#0E7C7B"/><circle cx="384.0" cy="144.0" r="9.5" fill="#F5F7F9" stroke="#0E7C7B" stroke-width="1.8"/><text x="384.0" y="148.0" font-family="Manrope, Inter, system-ui, -apple-system, Segoe UI, sans-serif" font-size="11" font-weight="700" fill="#0E7C7B" text-anchor="middle">3</text><text x="401.0" y="148.0" font-family="Manrope, Inter, system-ui, -apple-system, Segoe UI, sans-serif" font-size="11.5" font-weight="500" fill="#2B3A44" text-anchor="start">тормозной шланг</text><path d="M 121.4 136.7 L 358.0 190.0 L 372.0 190.0" stroke="#C9D3DA" stroke-width="1.5" fill="none"/><circle cx="121.4" cy="136.7" r="3" fill="#0E7C7B"/><circle cx="384.0" cy="190.0" r="9.5" fill="#F5F7F9" stroke="#0E7C7B" stroke-width="1.8"/><text x="384.0" y="194.0" font-family="Manrope, Inter, system-ui, -apple-system, Segoe UI, sans-serif" font-size="11" font-weight="700" fill="#0E7C7B" text-anchor="middle">4</text><text x="401.0" y="194.0" font-family="Manrope, Inter, system-ui, -apple-system, Segoe UI, sans-serif" font-size="11.5" font-weight="500" fill="#2B3A44" text-anchor="start">колодка</text><path d="M 202.4 136.7 L 358.0 236.0 L 372.0 236.0" stroke="#C9D3DA" stroke-width="1.5" fill="none"/><circle cx="202.4" cy="136.7" r="3" fill="#0E7C7B"/><circle cx="384.0" cy="236.0" r="9.5" fill="#F5F7F9" stroke="#0E7C7B" stroke-width="1.8"/><text x="384.0" y="240.0" font-family="Manrope, Inter, system-ui, -apple-system, Segoe UI, sans-serif" font-size="11" font-weight="700" fill="#0E7C7B" text-anchor="middle">5</text><text x="401.0" y="240.0" font-family="Manrope, Inter, system-ui, -apple-system, Segoe UI, sans-serif" font-size="11.5" font-weight="500" fill="#2B3A44" text-anchor="start">поршень суппорта</text></g><path d="M 22 274 L 538 274" stroke="#C9D3DA" stroke-width="1.4" fill="none"/><text x="22.0" y="294.0" font-family="Manrope, Inter, system-ui, -apple-system, Segoe UI, sans-serif" font-size="13" font-weight="700" fill="#2B3A44" text-anchor="start">Схема тормозного суппорта</text><text x="538.0" y="294.0" font-family="Manrope, Inter, system-ui, -apple-system, Segoe UI, sans-serif" font-size="11" font-weight="500" fill="#5C6B78" text-anchor="end">pro-stuk.com</text></svg>