<svg xmlns="http://www.w3.org/2000/svg" viewBox="0 0 400 240" role="img" aria-label="Ремень навесных агрегатов"><title>Ремень навесных агрегатов</title><rect width="400" height="240" rx="16" fill="#F5F7F9"/><g fill="none" stroke-linecap="round" stroke-linejoin="round">
<circle cx="104.0" cy="92.0" r="42.0" stroke="#5C6B78" stroke-width="3.4" fill="#EAEFF3"/><circle cx="104.0" cy="92.0" r="37.0" stroke="#C9D3DA" stroke-width="1.3" fill="none"/><circle cx="104.0" cy="92.0" r="10.9" stroke="#5C6B78" stroke-width="1.6" fill="none"/><circle cx="214.0" cy="64.0" r="28.0" stroke="#5C6B78" stroke-width="3.4" fill="#EAEFF3"/><circle cx="214.0" cy="64.0" r="23.0" stroke="#C9D3DA" stroke-width="1.3" fill="none"/><circle cx="214.0" cy="64.0" r="7.3" stroke="#5C6B78" stroke-width="1.6" fill="none"/><circle cx="250.0" cy="152.0" r="22.0" stroke="#5C6B78" stroke-width="3.4" fill="#EAEFF3"/><circle cx="250.0" cy="152.0" r="17.0" stroke="#C9D3DA" stroke-width="1.3" fill="none"/><circle cx="250.0" cy="152.0" r="6.0" stroke="#5C6B78" stroke-width="1.6" fill="none"/><circle cx="146.0" cy="178.0" r="20.0" stroke="#5C6B78" stroke-width="3.4" fill="#EAEFF3"/><circle cx="146.0" cy="178.0" r="15.0" stroke="#C9D3DA" stroke-width="1.3" fill="none"/><circle cx="146.0" cy="178.0" r="6.0" stroke="#5C6B78" stroke-width="1.6" fill="none"/>
<path d="M 150.5 197.5 L 254.9 173.4 A 22.0 22.0 0 0 0 270.8 145.0 L 240.5 55.1 A 28.0 28.0 0 0 0 210.5 36.2 L 98.7 50.3 A 42.0 42.0 0 0 0 71.5 118.6 L 130.5 190.7 A 20.0 20.0 0 0 0 150.5 197.5 Z" stroke="#0E7C7B" stroke-width="9.0" fill="none"/><path d="M 150.5 197.5 L 254.9 173.4 A 22.0 22.0 0 0 0 270.8 145.0 L 240.5 55.1 A 28.0 28.0 0 0 0 210.5 36.2 L 98.7 50.3 A 42.0 42.0 0 0 0 71.5 118.6 L 130.5 190.7 A 20.0 20.0 0 0 0 150.5 197.5 Z" stroke="#F5F7F9" stroke-width="1.1" stroke-dasharray="0.5 5" fill="none"/>
<circle cx="186.0" cy="128.0" r="15.0" stroke="#0E7C7B" stroke-width="2.3" fill="#E3EFEF"/><circle cx="186.0" cy="128.0" r="5.0" stroke="#C9D3DA" stroke-width="1.3" fill="none"/>
<path d="M 186.0 128.0 L 214.0 118.0" stroke="#0E7C7B" stroke-width="4.0"/>
<path d="M 78.0 107.0 A 30 30 0 0 1 81.0 72.7" stroke="#5C6B78" stroke-width="1.6" fill="none"/><path d="M 79.9 79.6 L 81.0 72.7 L 74.4 75.0" stroke="#5C6B78" stroke-width="1.6" fill="none"/>
<path d="M 316 103 A 13 13 0 0 1 316 129" stroke="#0E7C7B" stroke-width="2.3" opacity="0.75"/><path d="M 316 88 A 28 28 0 0 1 316 144" stroke="#0E7C7B" stroke-width="2.3" opacity="0.55"/></g></svg>