<svg xmlns="http://www.w3.org/2000/svg" viewBox="0 0 400 240" role="img" aria-label="Схема шаровой опоры"><title>Схема шаровой опоры</title><rect width="400" height="240" rx="16" fill="#F5F7F9"/><g fill="none" stroke-linecap="round" stroke-linejoin="round">
<path d="M 24.0 140.0 L 120.0 140.0 L 120.0 176.0 L 24.0 176.0 Z" stroke="#5C6B78" stroke-width="3.5" fill="#EAEFF3"/>
<path d="M 26.0 142.0 L 26.0 142.0" stroke="#C9D3DA" stroke-width="2"/><path d="M 39.0 142.0 L 26.0 155.0" stroke="#C9D3DA" stroke-width="2"/><path d="M 52.0 142.0 L 26.0 168.0" stroke="#C9D3DA" stroke-width="2"/><path d="M 65.0 142.0 L 33.0 174.0" stroke="#C9D3DA" stroke-width="2"/><path d="M 78.0 142.0 L 46.0 174.0" stroke="#C9D3DA" stroke-width="2"/><path d="M 91.0 142.0 L 59.0 174.0" stroke="#C9D3DA" stroke-width="2"/><path d="M 104.0 142.0 L 72.0 174.0" stroke="#C9D3DA" stroke-width="2"/><path d="M 117.0 142.0 L 85.0 174.0" stroke="#C9D3DA" stroke-width="2"/><path d="M 118.0 154.0 L 98.0 174.0" stroke="#C9D3DA" stroke-width="2"/>
<path d="M 110.0 112.0 L 228.0 112.0 L 238.0 140.0 L 228.0 172.0 L 110.0 172.0 Z" stroke="#0E7C7B" stroke-width="3.5" fill="#E3EFEF"/>
<circle cx="170.0" cy="142.0" r="27.0" stroke="#5C6B78" stroke-width="3.5" fill="#EAEFF3"/>
<circle cx="170.0" cy="142.0" r="15.0" stroke="#C9D3DA" stroke-width="2.5" fill="none"/>
<path d="M 156.0 116.0 L 184.0 116.0 L 180.0 66.0 L 160.0 66.0 Z" stroke="#5C6B78" stroke-width="3.5" fill="#EAEFF3"/>
<path d="M 150.0 112.0 Q 157.0 107.2 150.0 102.5" stroke="#C9D3DA" stroke-width="2.5" fill="none"/><path d="M 150.0 102.5 Q 157.0 97.8 150.0 93.0" stroke="#C9D3DA" stroke-width="2.5" fill="none"/><path d="M 150.0 93.0 Q 157.0 88.2 150.0 83.5" stroke="#C9D3DA" stroke-width="2.5" fill="none"/><path d="M 150.0 83.5 Q 157.0 78.8 150.0 74.0" stroke="#C9D3DA" stroke-width="2.5" fill="none"/>
<path d="M 190.0 112.0 Q 183.0 107.2 190.0 102.5" stroke="#C9D3DA" stroke-width="2.5" fill="none"/><path d="M 190.0 102.5 Q 183.0 97.8 190.0 93.0" stroke="#C9D3DA" stroke-width="2.5" fill="none"/><path d="M 190.0 93.0 Q 183.0 88.2 190.0 83.5" stroke="#C9D3DA" stroke-width="2.5" fill="none"/><path d="M 190.0 83.5 Q 183.0 78.8 190.0 74.0" stroke="#C9D3DA" stroke-width="2.5" fill="none"/>
<path d="M 118.0 34.0 L 222.0 34.0 L 222.0 68.0 L 118.0 68.0 Z" stroke="#5C6B78" stroke-width="3.5" fill="#EAEFF3"/>
<path d="M 120.0 36.0 L 120.0 36.0" stroke="#C9D3DA" stroke-width="2"/><path d="M 133.0 36.0 L 120.0 49.0" stroke="#C9D3DA" stroke-width="2"/><path d="M 146.0 36.0 L 120.0 62.0" stroke="#C9D3DA" stroke-width="2"/><path d="M 159.0 36.0 L 129.0 66.0" stroke="#C9D3DA" stroke-width="2"/><path d="M 172.0 36.0 L 142.0 66.0" stroke="#C9D3DA" stroke-width="2"/><path d="M 185.0 36.0 L 155.0 66.0" stroke="#C9D3DA" stroke-width="2"/><path d="M 198.0 36.0 L 168.0 66.0" stroke="#C9D3DA" stroke-width="2"/><path d="M 211.0 36.0 L 181.0 66.0" stroke="#C9D3DA" stroke-width="2"/><path d="M 220.0 40.0 L 194.0 66.0" stroke="#C9D3DA" stroke-width="2"/><path d="M 220.0 53.0 L 207.0 66.0" stroke="#C9D3DA" stroke-width="2"/>
<circle cx="170.0" cy="51.0" r="10.0" stroke="#5C6B78" stroke-width="2.5" fill="#EAEFF3"/>
<path d="M 300 107 A 13 13 0 0 1 300 133" stroke="#0E7C7B" stroke-width="3" opacity="0.75"/><path d="M 300 92 A 28 28 0 0 1 300 148" stroke="#0E7C7B" stroke-width="3" opacity="0.55"/></g></svg>